<?xml version="1.0" standalone="no"?>
<!DOCTYPE svg PUBLIC "-//W3C//DTD SVG 1.1//EN" "http://www.w3.org/Graphics/SVG/1.1/DTD/svg11.dtd" >
<svg xmlns="http://www.w3.org/2000/svg">
<metadata>Generated by IcoMoon</metadata>
<defs>
<font id="vueling" horiz-adv-x="1024">
<font-face units-per-em="1024" ascent="960" descent="-64" />
<missing-glyph horiz-adv-x="1024" />
<glyph unicode="&#x20;" horiz-adv-x="512" d="" />
<glyph unicode="&#xe600;" horiz-adv-x="948" d="M243.674 390.163c0 140.326 115.674 382.104 257.896 382.104s257.896-241.778 257.896-382.104c0-140.326-115.674-254.104-257.896-254.104s-257.896 113.778-257.896 254.104z" />
<glyph unicode="&#xe601;" horiz-adv-x="948" d="M829.63 762.785c-97.659 27.496-209.541 42.667-328.059 42.667s-230.4-15.17-328.059-42.667c3.793-77.748 34.133-147.911 83.437-201.956-12.326-17.067-22.756-36.030-31.289-54.993h-64.474c-23.704 0-42.667-18.963-42.667-41.719v-139.378c0-22.756 18.963-41.719 42.667-41.719h61.63c43.615-109.985 152.652-188.681 279.704-188.681 164.978 0 299.615 132.741 299.615 295.822 0 63.526-20.859 123.259-55.941 171.615 49.304 53.096 79.644 123.259 83.437 201.007zM501.57 745.719c39.822 0 72.059-31.289 72.059-71.111 0-38.874-32.237-71.111-72.059-71.111s-72.059 31.289-72.059 71.111c0.948 39.822 32.237 71.111 72.059 71.111zM501.57 154.074c-92.919 0-173.511 52.148-213.333 128.948 43.615-30.341 95.763-49.304 150.756-52.148v-6.637c0-7.585 6.637-14.222 14.222-14.222h96.711c7.585 0 14.222 6.637 14.222 14.222v38.874c0 7.585-6.637 14.222-14.222 14.222h-96.711c-7.585 0-14.222-6.637-14.222-14.222v-4.741c-65.422 3.793-126.104 32.237-170.667 77.748-3.793 17.067-6.637 35.081-6.637 54.044 0 57.837 20.859 110.933 55.941 151.704 56.889-10.43 118.519-16.119 182.993-16.119s126.104 5.689 182.993 16.119c35.081-40.77 55.941-93.867 55.941-151.704 1.896-129.896-106.193-236.089-237.985-236.089z" />
<glyph unicode="&#xe602;" horiz-adv-x="948" d="M675.081 486.874h-347.97c-15.17 0-28.444-12.326-28.444-28.444v-49.304c0-15.17 6.637-70.163 85.333-70.163h8.533c73.007 0 85.333 68.267 85.333 84.385v29.393h45.511v-29.393c0-15.17 12.326-84.385 85.333-84.385h8.533c77.748 0 85.333 54.993 85.333 70.163v49.304c0.948 16.119-11.378 28.444-27.496 28.444z" />
<glyph unicode="&#xe603;" glyph-name="equipaje_danyos" horiz-adv-x="948" d="M286.341 674.607c1.896-0.948 4.741-0.948 6.637-0.948 12.326 0 23.704 8.533 26.548 20.859 18.015 71.111 80.593 121.363 152.652 121.363s134.637-49.304 152.652-120.415c3.793-15.17 18.963-23.704 33.185-19.911s23.704 18.963 19.911 34.133c-23.704 95.763-109.037 163.081-205.748 163.081s-182.044-67.319-205.748-163.081c-3.793-16.119 4.741-31.289 19.911-35.081zM438.993 198.637l80.593 90.074-80.593 90.074 80.593 90.074-80.593 90.074 60.681 69.215h-333.748c-55.941 0-90.074-35.081-90.074-91.97v-414.341c0-56.889 34.133-91.97 90.074-91.97h281.6l72.059 80.593-80.593 88.178zM782.222 627.2h-256.948l-60.681-69.215 80.593-90.074-80.593-90.074 80.593-90.074-80.593-90.074 80.593-90.074-72.059-80.593h309.096c55.941 0 90.074 35.081 90.074 91.97v414.341c0 57.837-34.133 93.867-90.074 93.867z" />
<glyph unicode="&#xe604;" horiz-adv-x="948" d="M713.007 522.904v145.067c0 39.822-32.237 73.007-72.059 73.007h-95.763c0 74.904-60.681 136.533-134.637 136.533s-134.637-61.63-134.637-136.533h-95.763c-39.822 0-72.059-32.237-72.059-73.007v-571.733c0-39.822 32.237-73.007 72.059-73.007h460.8c39.822 0 72.059 32.237 72.059 73.007v85.333c73.007 21.807 126.104 90.074 126.104 170.667s-53.096 148.859-126.104 170.667zM411.496 663.23c-41.719 0-75.852 34.133-75.852 76.8s34.133 76.8 75.852 76.8c41.719 0 75.852-34.133 75.852-76.8-0.948-41.719-34.133-76.8-75.852-76.8z" />
<glyph unicode="&#xe605;" horiz-adv-x="948" d="M488.296 352.237c0 97.659 78.696 178.252 175.407 178.252v77.748c0 36.030-29.393 66.37-65.422 66.37h-57.837v-25.6c0-18.963-15.17-34.133-33.185-34.133h-191.526c-18.015 0-33.185 15.17-33.185 34.133v25.6h-57.837c-36.030 0-65.422-29.393-65.422-66.37v-462.696c0-36.030 29.393-66.37 65.422-66.37h374.519c36.030 0 65.422 29.393 65.422 66.37v28.444c-97.659 0-176.356 80.593-176.356 178.252zM663.704 488.77c-73.956 0-134.637-61.63-134.637-136.533s60.681-136.533 134.637-136.533 134.637 61.63 134.637 136.533-60.681 136.533-134.637 136.533zM681.719 296.296c-2.844-2.844-7.585-2.844-10.43 0l-60.681 64.474c-2.844 2.844-2.844 7.585 0 11.378l61.63 66.37 70.163-75.852-60.681-66.37z" />
<glyph unicode="&#xe606;" horiz-adv-x="948" d="M220.919 232.77h93.867v-94.815h-93.867c0 0 0 94.815 0 94.815zM220.919 399.644h93.867v-94.815h-93.867c0 0 0 94.815 0 94.815zM220.919 566.519h93.867v-94.815h-93.867c0 0 0 94.815 0 94.815zM585.007 326.637c-2.844-3.793-2.844-8.533 0-11.378l44.563-47.407c2.844-2.844 7.585-2.844 10.43 0l22.756 24.652-54.993 58.785-22.756-24.652z" />
<glyph unicode="&#xe607;" horiz-adv-x="948" d="M840.059 556.089c0-131.436-106.55-237.985-237.985-237.985s-237.985 106.55-237.985 237.985c0 131.436 106.55 237.985 237.985 237.985s237.985-106.55 237.985-237.985z" />
<glyph unicode="&#xe608;" horiz-adv-x="948" d="M595.437 493.511c-14.222 0-23.704 10.43-25.6 23.704l-4.741 32.237c-2.844 16.119 6.637 26.548 21.807 28.444 41.719 5.689 60.681 18.015 60.681 41.719v0.948c0 21.807-16.119 34.133-43.615 34.133-20.859 0-37.926-6.637-54.993-18.963-5.689-4.741-13.274-7.585-21.807-7.585-18.015 0-33.185 15.17-33.185 33.185 0 9.481 3.793 18.963 12.326 25.6 25.6 20.859 56.889 34.133 98.607 34.133 68.267 0 114.726-35.081 114.726-98.607v-0.948c0-60.681-41.719-85.333-93.867-95.763l-1.896-8.533c-1.896-12.326-12.326-23.704-25.6-23.704h-2.844zM595.437 462.222c23.704 0 41.719-18.015 41.719-40.77v-0.948c0-22.756-18.015-40.77-41.719-40.77s-41.719 18.015-41.719 40.77v0.948c0 23.704 18.015 40.77 41.719 40.77z" />
<glyph unicode="&#xe609;" horiz-adv-x="948" d="M280.652 582.637c7.585-3.793 13.274-11.378 14.222-19.911l3.793-19.911c0-0.948 0.948-1.896 1.896-1.896v0c0.948 0 1.896 0.948 1.896 1.896l21.807 60.681c1.896 4.741 1.896 10.43-0.948 16.119-2.844 4.741-6.637 8.533-12.326 10.43s-11.378 1.896-16.119-0.948c-4.741-1.896-8.533-6.637-10.43-11.378l-10.43-29.393c0-0.948 0-1.896 0.948-2.844l5.689-2.844zM315.733 553.244c0-0.948 0.948-0.948 1.896-0.948l5.689-1.896c7.585-1.896 13.274-6.637 17.067-12.326l6.637-9.481c0-0.948 0.948-0.948 1.896-0.948v0c0.948 0 1.896 0.948 1.896 1.896l32.237 88.178c1.896 4.741 1.896 10.43-0.948 16.119-2.844 4.741-6.637 8.533-12.326 10.43s-11.378 1.896-16.119-0.948c-4.741-1.896-8.533-6.637-10.43-11.378l-28.444-75.852c0.948-1.896 0.948-2.844 0.948-2.844zM350.815 490.667v0l0.948-180.148 6.637-74.904c0-0.948 0.948-1.896 1.896-1.896v0c0.948 0 1.896 0.948 1.896 1.896l24.652 85.333 72.059 200.059c3.793 10.43-1.896 22.756-13.274 26.548-5.689 1.896-11.378 1.896-16.119-0.948-4.741-1.896-8.533-6.637-10.43-11.378l-27.496-75.852-7.585 2.844 38.874 108.089c3.793 10.43-1.896 22.756-13.274 26.548-1.896 0.948-4.741 0.948-7.585 0.948-8.533 0-17.067-5.689-19.911-13.274l-31.289-93.867zM861.867 232.77c-23.704 49.304-78.696 44.563-78.696 44.563l-116.622-21.807-19.911 92.919-301.511-122.311-7.585 77.748-0.948 213.333c0 11.378-9.481 20.859-20.859 20.859s-20.859-9.481-20.859-20.859v-80.593h-7.585v115.674c0 11.378-9.481 20.859-20.859 20.859s-20.859-9.481-20.859-20.859v-115.674h-7.585v147.911c0 11.378-9.481 20.859-20.859 20.859s-20.859-9.481-20.859-20.859v-148.859h-7.585v115.674c0 11.378-9.481 20.859-20.859 20.859s-20.859-9.481-20.859-20.859v-131.793l-24.652 27.496c-4.741 4.741-9.481 8.533-15.17 8.533-0.948 0-1.896 0-2.844 0-4.741 0-8.533-1.896-12.326-4.741-10.43-9.481-12.326-20.859-4.741-35.081l59.733-112.83-8.533-91.97c0-0.948 0-0.948 0.948-1.896 0-0.948 0.948-0.948 1.896-0.948l166.874 0.948-130.844-53.096 6.637-32.237 513.896-3.793-19.911 92.919c0 0 92.919 17.067 109.985 20.859 13.274 2.844 52.148-16.119 48.356-46.459s-32.237-36.030-53.096-41.719-17.067-36.030 4.741-38.874c20.859-2.844 45.511-0.948 68.267 25.6 18.015 25.6 21.807 66.37 5.689 100.504zM81.541 137.007c-10.43-1.896-3.793-25.6 4.741-23.704s78.696 14.222 78.696 14.222l-4.741 23.704c0 0-68.267-12.326-78.696-14.222z" />
<glyph unicode="&#xe60a;" horiz-adv-x="948" d="M392.533 772.267c0 23.704-18.963 42.667-42.667 42.667h-10.43c-23.704 0-42.667-18.963-42.667-42.667v-128.948c0-23.704 18.963-42.667 42.667-42.667h10.43c23.704 0 42.667 18.963 42.667 42.667v128.948zM608.711 814.933h-10.43c-23.704 0-42.667-18.963-42.667-42.667v-128.948c0-23.704 18.963-42.667 42.667-42.667h10.43c23.704 0 42.667 18.963 42.667 42.667v128.948c0 23.704-18.963 42.667-42.667 42.667z" />
<glyph unicode="&#xe60b;" horiz-adv-x="948" d="M246.519 554.193v-450.37h445.63v450.37z" />
<glyph unicode="&#xe60c;" horiz-adv-x="948" d="M683.615 743.822v-100.504c0-41.719-33.185-74.904-79.644-74.904-48.356 0-80.593 33.185-80.593 74.904v100.504h-98.607v-100.504c0-41.719-32.237-74.904-80.593-74.904-45.511 0-79.644 33.185-79.644 74.904v100.504h-131.793v-658.963h682.667v658.963h-131.793zM470.281 125.63c-112.83 0-204.8 92.919-204.8 206.696s91.97 206.696 204.8 206.696c112.83 0 204.8-92.919 204.8-206.696s-91.97-206.696-204.8-206.696zM470.281 490.667c-87.23 0-157.393-71.111-157.393-159.289s71.111-159.289 157.393-159.289c86.281 0 157.393 71.111 157.393 159.289s-70.163 159.289-157.393 159.289zM465.541 441.363c13.274 0 24.652-9.481 24.652-21.807s-10.43-21.807-24.652-21.807c-13.274 0-23.704 9.481-23.704 21.807s10.43 21.807 23.704 21.807zM495.881 228.978c-23.704-6.637-65.422-5.689-68.267 29.393 0 13.274-6.637 48.356 18.015 68.267 16.119 14.222 0 45.511-31.289 40.77-8.533-1.896-13.274-4.741-13.274-4.741 4.741 1.896 9.481 3.793 13.274 4.741 20.859 5.689 59.733 14.222 70.163-4.741 8.533-11.378-0.948-52.148-9.481-70.163-14.222-29.393 30.341-50.252 61.63-24.652-0.948 0-11.378-30.341-40.77-38.874z" />
<glyph unicode="&#xe60d;" horiz-adv-x="948" d="M779.378 660.385h-611.556c-54.993 0-89.126-35.081-89.126-91.022v-409.6c0-55.941 34.133-91.022 89.126-91.022h611.556c54.993 0 89.126 35.081 89.126 91.022v409.6c0.948 56.889-34.133 91.022-89.126 91.022zM288.237 707.793c17.067-3.793 30.341 7.585 33.185 19.911 18.015 70.163 79.644 119.467 151.704 119.467 71.111 0 133.689-49.304 151.704-119.467 3.793-15.17 18.963-23.704 33.185-19.911s23.704 18.963 19.911 34.133c-23.704 94.815-108.089 161.185-203.852 161.185-96.711 0-180.148-66.37-203.852-161.185-5.689-15.17 2.844-30.341 18.015-34.133z" />
<glyph unicode="&#xe60e;" horiz-adv-x="948" d="M249.363 367.407c0 117.57 95.763 213.333 213.333 213.333s213.333-95.763 213.333-213.333-95.763-213.333-213.333-213.333c-117.57 0-213.333 95.763-213.333 213.333z" />
<glyph unicode="&#xe60f;" horiz-adv-x="948" d="M414.341 390.163c-30.341 0-55.941-24.652-55.941-54.993s24.652-54.993 55.941-54.993c30.341 0 55.941 24.652 55.941 54.993 0 29.393-24.652 54.993-55.941 54.993zM814.459 65.896l-164.030 162.133c31.289 38.874 50.252 89.126 50.252 143.17 0 127.052-103.348 229.452-230.4 229.452s-230.4-102.4-230.4-229.452 103.348-229.452 230.4-229.452c42.667 0 82.489 11.378 116.622 31.289l0.948-0.948 167.822-164.978c18.015-17.067 45.511-18.015 61.63-1.896 15.17 16.119 14.222 43.615-2.844 60.681zM470.281 196.741c5.689 0 10.43 0 16.119 0.948 46.459 25.6 77.748 74.904 77.748 130.844 0 8.533-0.948 17.067-2.844 25.6-9.481-9.481-22.756-15.17-36.978-15.17-3.793 0-7.585 0-11.378 0.948 0-3.793 0.948-7.585 0.948-11.378 0-54.993-44.563-99.556-100.504-99.556s-100.504 44.563-100.504 99.556c0 54.993 44.563 99.556 100.504 99.556 23.704 0 45.511-8.533 62.578-21.807 5.689 16.119 19.911 29.393 36.978 33.185-26.548 23.704-61.63 37.926-99.556 37.926-41.719 0-78.696-17.067-106.193-43.615v0c25.6 64.474 88.178 109.985 162.133 109.985 96.711 0 174.459-77.748 174.459-173.511 0.948-95.763-76.8-173.511-173.511-173.511z" />
<glyph unicode="&#xe610;" horiz-adv-x="948" d="M187.702 762.738c22.752 84.372 100.489 144.097 189.601 144.097s165.901-59.724 188.653-144.097c3.792-13.272-4.74-26.544-18.012-29.388-14.22-4.74-27.492 5.688-30.336 17.064-17.064 62.568-73.944 107.125-140.305 107.125s-124.189-44.556-140.305-107.125c-3.792-12.324-17.064-19.908-30.336-17.064-15.168 2.844-21.804 16.116-18.96 29.388zM753.661 636.653v-247.429c-51.192-3.792-112.813-13.272-112.813-13.272v-200.977h-578.283c-35.076 0-62.568 32.232-62.568 66.36v395.318c0 34.128 28.44 62.568 62.568 62.568h633.267c35.076 0 57.828-28.44 57.828-62.568zM519.504 423.352l-0.948 33.18c0 20.856-16.116 37.92-36.972 37.92h-45.504v47.4c0 20.856-20.856 35.076-41.712 35.076h-34.128c-20.856 0-36.972-14.22-36.972-35.076v-47.4h-48.348c-20.856 0-33.18-17.064-33.18-37.92v-33.18c0-19.908 12.324-41.712 33.18-41.712h49.296v-43.608c0-20.856 16.116-38.868 36.972-38.868h34.128c20.856 0 41.712 18.012 41.712 38.868v43.608h45.504c20.856 0 36.972 20.856 36.972 41.712z" />
<glyph unicode="&#xe611;" horiz-adv-x="948" d="M774.518-10.835c-162.109 60.672-172.537 204.769-173.485 206.665v216.145c0 0 91.957 16.116 173.485 16.116s173.485-16.116 173.485-16.116v-215.197c0-2.844-8.532-148.837-173.485-207.613z" />
<glyph unicode="&#xe612;" horiz-adv-x="948" d="M779.258 407.236c-78.684 0-158.317-13.272-158.317-13.272v-201.925c0 0 10.428-138.409 158.317-192.445 147.889 54.036 158.317 192.445 158.317 192.445v201.925c0 0-79.632 13.272-158.317 13.272zM845.618 276.411l-58.776-128.929c-4.74-9.48-16.116-13.272-25.596-9.48l-1.896 0.948c-5.688 1.896-9.48 5.688-11.376 10.428l-34.128 61.62c-4.74 9.48 0 19.908 10.428 22.752s21.804-0.948 25.596-9.48l16.116-27.492 45.504 97.645c4.74 9.48 16.116 12.324 24.648 6.636 9.48-5.688 13.272-17.064 9.48-24.648v0z" />
<glyph unicode="&#xe800;" glyph-name="ida_vuelta" horiz-adv-x="948" d="M364.089 430.933l58.785 129.896c3.793 8.533 5.689 18.963 5.689 29.393 51.2-2.844 87.23-4.741 87.23-4.741 28.444 0 52.148 21.807 52.148 48.356v0.948c0 26.548-23.704 48.356-52.148 48.356 0 0-36.030-1.896-87.23-4.741 0 10.43-1.896 20.859-5.689 29.393l-58.785 129.896c-18.015 39.822-64.474 30.341-66.37 1.896v0-171.615c-50.252-3.793-100.504-8.533-140.326-13.274 0 2.844-0.948 5.689-1.896 8.533l-23.704 53.096c-7.585 16.119-25.6 12.326-26.548 0.948v-71.111c-17.067-3.793-27.496-7.585-27.496-12.326v-0.948c0-3.793 10.43-7.585 28.444-11.378v-71.111c0.948-11.378 19.911-15.17 26.548 0.948l23.704 52.148c0.948 2.844 1.896 5.689 1.896 9.481 39.822-4.741 90.074-9.481 140.326-14.222v-171.615c1.896-26.548 48.356-36.030 65.422 3.793zM584.059 58.311l-58.785 129.896c-3.793 8.533-5.689 18.963-5.689 29.393-51.2-2.844-87.23-4.741-87.23-4.741-28.444 0-52.148 21.807-52.148 48.356v0.948c0 26.548 23.704 48.356 52.148 48.356 0 0 36.030-1.896 87.23-4.741 0 10.43 1.896 20.859 5.689 29.393l58.785 129.896c18.015 39.822 64.474 30.341 66.37 2.844v0-171.615c50.252-3.793 100.504-8.533 140.326-14.222 0 2.844 0.948 5.689 1.896 8.533l23.704 53.096c7.585 16.119 26.548 12.326 26.548 0.948v-71.111c18.015-3.793 27.496-7.585 27.496-11.378v-0.948c0-3.793-10.43-7.585-27.496-11.378v-71.111c-0.948-11.378-19.911-15.17-27.496 0.948l-23.704 53.096c-0.948 2.844-1.896 5.689-1.896 8.533-39.822-4.741-90.074-9.481-140.326-13.274v-171.615c-0.948-28.444-47.407-37.926-65.422 1.896z" />
<glyph unicode="&#xe801;" horiz-adv-x="948" d="M76.8 846.222l-0.948-796.444h670.341c70.163 0 126.104 57.837 126.104 128v668.444h-795.496z" />
<glyph unicode="&#xe802;" horiz-adv-x="948" d="M812.563 177.778c0-36.978-29.393-67.319-66.37-67.319h-608.711v676.030h675.081v-608.711z" />
<glyph unicode="&#xe803;" horiz-adv-x="948" d="M508.207 480.237h256v-65.422h-256v65.422zM508.207 177.778h256v65.422h-256v-65.422zM508.207 296.296h256v65.422h-256v-65.422zM183.941 414.815h256v65.422h-256v-65.422zM183.941 177.778h256v65.422h-256v-65.422zM183.941 296.296h256v65.422h-256v-65.422zM508.207 718.222v-65.422h256v65.422h-256zM508.207 533.333h256v65.422h-256v-65.422zM183.941 651.852h256v65.422h-256v-65.422zM183.941 533.333h256v65.422h-256v-65.422z" />
<glyph unicode="&#xe804;" horiz-adv-x="948" d="M597.333 428.089h-113.778v208.593c0 23.704-18.015 42.667-40.77 42.667s-40.77-18.963-40.77-42.667v-249.363c0-10.43 4.741-19.911 11.378-27.496l1.896-1.896c7.585-6.637 17.067-11.378 27.496-11.378h154.548c22.756 0 42.667 18.015 42.667 40.77s-18.963 40.77-42.667 40.77z" />
<glyph unicode="&#xe805;" horiz-adv-x="948" d="M441.837 378.785c0 10.43 3.793 18.963 12.326 25.6s18.963 10.43 30.341 10.43 21.807-3.793 30.341-10.43c8.533-6.637 12.326-15.17 12.326-25.6s-4.741-18.963-12.326-25.6c-8.533-7.585-18.015-10.43-30.341-10.43s-21.807 3.793-30.341 10.43c-7.585 6.637-12.326 15.17-12.326 25.6zM523.378 484.978c0-16.119-2.844-28.444-9.481-36.030s-16.119-12.326-29.393-12.326-22.756 3.793-29.393 12.326c-6.637 7.585-9.481 19.911-9.481 36.030v122.311c0 16.119 2.844 27.496 9.481 36.030 6.637 7.585 16.119 11.378 29.393 11.378s22.756-3.793 29.393-11.378c6.637-7.585 9.481-19.911 9.481-36.030v-122.311z" />
<glyph unicode="&#xe806;" glyph-name="ico_user" horiz-adv-x="948" d="M77.748 115.2c0 0 0 35.081 0 41.719 0 242.726 178.252 297.719 396.326 297.719s396.326-55.941 396.326-297.719c0-7.585 0-41.719 0-41.719 0-40.77-136.533-89.126-384.948-89.126-281.6-0.948-407.704 48.356-407.704 89.126zM691.2 678.4c0-106.193-96.711-192.474-215.23-192.474-119.467 0-215.23 86.281-215.23 192.474s96.711 192.474 215.23 192.474c118.519 0 215.23-86.281 215.23-192.474z" />
<glyph unicode="&#xe807;" horiz-adv-x="948" d="M880.83 522.904l-238.933 229.452c-10.43 9.481-27.496 9.481-36.978 0l-47.407-43.615-323.319 82.489c-13.274 3.793-28.444-4.741-33.185-18.015l-120.415-343.23c-12.326-7.585-20.859-20.859-20.859-35.081v-248.415c0-23.704 20.859-42.667 46.459-42.667h703.526c25.6 0 46.459 18.963 46.459 42.667v248.415c0 18.963-13.274 35.081-32.237 39.822l57.837 53.096c9.481 10.43 9.481 26.548-0.948 35.081z" />
<glyph unicode="&#xe808;" horiz-adv-x="948" d="M415.289 438.519l97.659 89.126 33.185-32.237-61.63-56.889h-69.215zM256.948 438.519l28.444 90.074-45.511 14.222-33.185-103.348h50.252v-0.948z" />
<glyph unicode="&#xe809;" horiz-adv-x="948" d="M260.741 614.874c12.326-2.844 19.911-14.222 16.119-25.6-2.844-11.378-16.119-18.015-27.496-15.17-12.326 2.844-19.911 14.222-16.119 25.6 2.844 11.378 15.17 18.963 27.496 15.17zM327.111 577.896c-2.844-11.378 3.793-22.756 16.119-25.6s24.652 3.793 27.496 15.17c2.844 11.378-3.793 22.756-16.119 25.6-11.378 2.844-23.704-4.741-27.496-15.17zM569.837 553.244c8.533 8.533 8.533 21.807-0.948 29.393s-23.704 7.585-32.237-0.948-8.533-21.807 0.948-29.393c9.481-7.585 23.704-7.585 32.237 0.948zM641.896 491.615c8.533 8.533 8.533 21.807-0.948 29.393s-23.704 7.585-32.237-0.948-8.533-21.807 0.948-29.393c8.533-7.585 23.704-7.585 32.237 0.948zM855.23 395.852v-248.415c0-23.704-20.859-42.667-46.459-42.667h-703.526c-25.6 0-46.459 18.963-46.459 42.667v248.415c0 23.704 20.859 42.667 46.459 42.667h18.963l44.563 138.43c0.948 4.741 4.741 8.533 9.481 11.378 9.481 4.741 20.859 1.896 25.6-6.637 2.844-3.793 2.844-8.533 1.896-13.274v0l-41.719-128.948h139.378l164.030 150.756c3.793 3.793 8.533 5.689 14.222 5.689 10.43 0 18.963-7.585 18.963-17.067 0-4.741-1.896-8.533-5.689-12.326v0l-138.43-127.052h310.993c-3.793 7.585-1.896 16.119 4.741 22.756 8.533 8.533 22.756 8.533 32.237 0.948 7.585-6.637 8.533-16.119 5.689-23.704h31.289c0.948 3.793 1.896 6.637 4.741 9.481v0l63.526 58.785c2.844 2.844 2.844 6.637 0 9.481l-179.2 164.030c-0.948 0.948-2.844 1.896-4.741 1.896s-3.793-0.948-4.741-1.896l-66.37-61.63c-3.793-3.793-8.533-5.689-14.222-5.689-10.43 0-18.963 7.585-18.963 17.067 0 4.741 1.896 9.481 5.689 12.326v0l67.319 61.63c8.533 8.533 20.859 12.326 32.237 12.326s23.704-3.793 32.237-12.326l179.2-164.030c18.015-16.119 18.015-42.667 0-58.785l-46.459-42.667h18.015c24.652-0.948 45.511-19.911 45.511-43.615zM809.719 394.904h-710.163v-246.519h710.163v246.519zM194.37 635.733c4.741-8.533 17.067-11.378 25.6-6.637 4.741 2.844 7.585 6.637 9.481 10.43l26.548 83.437c0.948 1.896 1.896 2.844 3.793 3.793s3.793 0.948 5.689 0.948l239.881-64.474 28.444 25.6c-3.793 2.844-9.481 5.689-14.222 6.637l-242.726 65.422c-12.326 2.844-24.652 1.896-35.081-3.793-10.43-4.741-18.015-14.222-21.807-24.652l-26.548-83.437c-1.896-4.741-1.896-9.481 0.948-13.274zM731.022 232.77l-21.807 50.252c-1.896 3.793-3.793 6.637-6.637 9.481 15.17 12.326 25.6 20.859 25.6 20.859 7.585 7.585 8.533 18.963 0 26.548v0c-7.585 7.585-20.859 6.637-28.444 0 0 0-9.481-9.481-22.756-23.704-2.844 2.844-6.637 4.741-10.43 6.637l-54.993 19.911c-17.067 5.689-26.548-8.533-18.963-16.119v0c0 0 0 0 0.948-0.948 3.793-3.793 25.6-23.704 49.304-45.511-13.274-14.222-25.6-28.444-35.081-39.822-0.948 0.948-1.896 0.948-2.844 1.896l-21.807 8.533c-6.637 2.844-10.43-3.793-7.585-6.637v0 0c1.896-0.948 10.43-9.481 20.859-18.963-3.793-5.689-5.689-9.481-4.741-10.43v0c0.948-0.948 5.689 0.948 11.378 3.793 9.481-9.481 18.963-17.067 20.859-18.963v0 0c3.793-2.844 10.43 0.948 7.585 7.585l-8.533 19.911c-0.948 0.948-0.948 1.896-1.896 2.844 12.326 8.533 28.444 20.859 43.615 32.237 23.704-21.807 45.511-41.719 49.304-45.511l0.948-0.948c6.637-6.637 22.756 1.896 16.119 17.067z" />
<glyph unicode="&#xe80c;" horiz-adv-x="948" d="M474.074 846.222c-219.97 0-398.222-178.252-398.222-398.222s178.252-398.222 398.222-398.222 398.222 178.252 398.222 398.222-178.252 398.222-398.222 398.222z" />
<glyph unicode="&#xe80d;" horiz-adv-x="948" d="M474.074 146.489c-166.874 0-302.459 135.585-302.459 302.459s135.585 302.459 302.459 302.459 302.459-135.585 302.459-302.459-134.637-302.459-302.459-302.459z" />
<glyph unicode="&#xe80e;" horiz-adv-x="948" d="M328.059 864.237h-12.326c-27.496 0-49.304-21.807-49.304-48.356v-146.963c0-26.548 21.807-48.356 49.304-48.356h12.326c27.496 0 49.304 21.807 49.304 48.356v146.963c0 26.548-21.807 48.356-49.304 48.356zM630.519 864.237h-12.326c-27.496 0-49.304-21.807-49.304-48.356v-146.963c0-26.548 21.807-48.356 49.304-48.356h12.326c27.496 0 49.304 21.807 49.304 48.356v146.963c0 26.548-22.756 48.356-49.304 48.356z" />
<glyph unicode="&#xe80f;" horiz-adv-x="948" d="M717.748 783.644v-114.726c0-47.407-38.874-85.333-87.23-85.333h-12.326c-48.356 0-87.23 37.926-87.23 85.333v114.726h-114.726v-114.726c0-47.407-38.874-85.333-87.23-85.333h-12.326c-48.356 0-87.23 37.926-87.23 85.333v114.726h-153.6v-751.881h796.444v751.881h-154.548z" />
<glyph unicode="&#xe810;" horiz-adv-x="948" d="M609.659 170.193c-21.807-12.326-49.304-18.963-82.489-18.963-20.859 0-41.719 3.793-61.63 11.378s-36.978 18.015-52.148 31.289c-19.911 18.015-33.185 41.719-41.719 70.163h-29.393c-8.533 0-15.17 1.896-20.859 6.637s-8.533 11.378-8.533 18.963 2.844 14.222 8.533 18.963 12.326 6.637 20.859 6.637h20.859c0 5.689-0.948 12.326-0.948 18.015h-19.911c-8.533 0-15.17 2.844-20.859 6.637-5.689 4.741-8.533 11.378-8.533 18.963s2.844 14.222 8.533 18.963 12.326 7.585 20.859 7.585h27.496c1.896 4.741 2.844 9.481 4.741 14.222 7.585 19.911 19.911 37.926 34.133 52.148 15.17 15.17 33.185 26.548 53.096 34.133 20.859 7.585 42.667 12.326 67.319 12.326 13.274 0 27.496-1.896 43.615-4.741 15.17-2.844 29.393-8.533 40.77-16.119s17.067-18.015 17.067-29.393c0-10.43-2.844-18.963-7.585-25.6s-12.326-10.43-22.756-10.43c-5.689 0-16.119 2.844-29.393 7.585-14.222 5.689-27.496 8.533-39.822 8.533-18.963 0-36.030-4.741-48.356-13.274-10.43-7.585-18.963-17.067-24.652-28.444h91.97c4.741 0 10.43-0.948 14.222-2.844 4.741-1.896 7.585-4.741 10.43-9.481 2.844-3.793 3.793-8.533 3.793-14.222 0-7.585-2.844-14.222-8.533-18.963s-12.326-7.585-20.859-7.585h-105.244c0-2.844 0-4.741 0-7.585 0-3.793 0-7.585 0-10.43h105.244c4.741 0 10.43-0.948 14.222-2.844 4.741-1.896 7.585-4.741 10.43-8.533s3.793-8.533 3.793-14.222c0-8.533-2.844-14.222-8.533-18.963s-12.326-6.637-20.859-6.637h-92.919c4.741-7.585 9.481-15.17 16.119-20.859 15.17-14.222 34.133-20.859 56.889-20.859 12.326 0 22.756 1.896 31.289 4.741l22.756 10.43c5.689 2.844 11.378 3.793 15.17 3.793 10.43 0 18.963-3.793 24.652-10.43 5.689-7.585 8.533-15.17 8.533-25.6 2.844-14.222-4.741-26.548-20.859-35.081z" />
<glyph unicode="&#xe811;" glyph-name="check_listado_yellow" horiz-adv-x="1017" d="M711.481 620.883l-179.532-392.312c-13.299-26.597-46.545-39.896-79.792-26.597l-6.649 6.649c-13.299 6.649-26.597 13.299-33.247 33.247l-106.39 179.532c-13.299 26.597 0 59.844 33.247 73.143s66.494 0 79.792-26.597l46.545-93.091 139.636 299.221c13.299 26.597 46.545 39.896 73.143 19.948 33.247-13.299 46.545-46.545 33.247-73.143zM505.351 946.701c-272.623 0-498.701-226.078-498.701-498.701s226.078-498.701 498.701-498.701 498.701 226.078 498.701 498.701-219.429 498.701-498.701 498.701z" />
<glyph unicode="&#xe812;" horiz-adv-x="948" d="M680.77 791.23v24.652c0 26.548-21.807 48.356-49.304 48.356h-12.326c-27.496 0-49.304-21.807-49.304-48.356v-24.652h-190.578v24.652c0 26.548-21.807 48.356-49.304 48.356h-12.326c-27.496 0-49.304-21.807-49.304-48.356v-24.652h-192.474v-759.467h796.444v759.467h-191.526z" />
<glyph unicode="&#xe813;" horiz-adv-x="948" d="M613.452 469.807h192.474v-157.393h-192.474v157.393z" />
<glyph unicode="&#xe814;" horiz-adv-x="948" d="M315.733 92.444h-173.511v159.289h172.563l0.948-159.289zM315.733 312.415h-173.511v157.393h172.563l0.948-157.393zM548.030 92.444h-165.926v159.289h165.926v-159.289zM548.030 312.415h-165.926v157.393h165.926v-157.393zM805.926 92.444h-192.474v159.289h192.474v-159.289zM805.926 530.489h-663.704v201.007h125.156v-61.63c0-26.548 21.807-48.356 49.304-48.356h12.326c27.496 0 49.304 21.807 49.304 48.356v61.63h190.578v-61.63c0-26.548 21.807-48.356 49.304-48.356h12.326c27.496 0 49.304 21.807 49.304 48.356v61.63h126.104v-201.007z" />
<glyph unicode="&#xe819;" horiz-adv-x="948" d="M872.296 534.281v-418.133c0-57.837-34.133-92.919-90.074-92.919h-616.296c-55.941 0-90.074 36.030-90.074 92.919v418.133c0 57.837 34.133 92.919 90.074 92.919h44.563c-6.637-12.326-10.43-25.6-10.43-40.77 0-8.533 6.637-15.17 15.17-15.17 7.585 0 14.222 6.637 14.222 15.17 0 16.119 6.637 30.341 16.119 40.77h79.644c10.43-10.43 16.119-24.652 16.119-40.77 0-8.533 6.637-15.17 14.222-15.17s15.17 6.637 15.17 15.17c0 15.17-3.793 28.444-10.43 40.77h420.978c56.889 0 91.022-36.030 91.022-92.919zM286.341 675.556c2.844-0.948 4.741-0.948 6.637-0.948 12.326 0 23.704 8.533 26.548 21.807 18.015 72.059 80.593 122.311 152.652 122.311s134.637-50.252 152.652-122.311c3.793-15.17 18.963-24.652 33.185-20.859s23.704 18.963 19.911 34.133c-23.704 96.711-108.089 164.030-205.748 164.030-96.711 0-182.044-67.319-205.748-164.030-3.793-14.222 4.741-30.341 19.911-34.133z" />
<glyph unicode="&#xe81a;" horiz-adv-x="948" d="M392.533 509.63c0 22.756-15.17 38.874-37.926 38.874h-135.585c-21.807 0-37.926-16.119-37.926-38.874v-219.022c0-22.756 15.17-38.874 37.926-38.874h135.585c22.756 0 37.926 16.119 37.926 38.874v219.022z" />
<glyph unicode="&#xe81b;" horiz-adv-x="948" d="M229.452 463.17c0 8.533 6.637 15.17 14.222 15.17h86.281c7.585 0 14.222-6.637 14.222-15.17s-6.637-15.17-14.222-15.17h-86.281c-7.585 0.948-14.222 6.637-14.222 15.17zM329.956 410.074h-86.281c-7.585 0-14.222-6.637-14.222-15.17s6.637-15.17 14.222-15.17h86.281c7.585 0 14.222 6.637 14.222 15.17s-5.689 15.17-14.222 15.17zM329.956 339.911h-86.281c-7.585 0-14.222-6.637-14.222-14.222 0-8.533 6.637-15.17 14.222-15.17h86.281c7.585 0 14.222 6.637 14.222 15.17s-5.689 14.222-14.222 14.222z" />
<glyph unicode="&#xe81c;" horiz-adv-x="948" d="M75.852 497.304c0 167.822 178.252 303.407 398.222 303.407s398.222-135.585 398.222-303.407c0-68.267-29.393-131.793-79.644-182.044-79.644-93.867 4.741-219.97 4.741-219.97-61.63 8.533-459.852 116.622-459.852 116.622-152.652 42.667-261.689 153.6-261.689 285.393z" />
<glyph unicode="&#xe81d;" horiz-adv-x="948" d="M358.4 284.919c94.815-25.6 227.556-61.63 328.059-88.178-7.585 54.993 1.896 114.726 46.459 165.926l3.793 3.793c26.548 26.548 57.837 71.111 57.837 128.948 0 125.156-143.17 227.556-320.474 227.556-176.356 0-320.474-101.452-320.474-227.556 0-91.022 82.489-176.356 204.8-210.489z" />
<glyph unicode="&#xe81e;" horiz-adv-x="948" d="M728.178 549.452l41.719 94.815c2.844 6.637 3.793 13.274 4.741 21.807 36.030-1.896 61.63-3.793 61.63-3.793 20.859 0 36.978 16.119 36.978 35.081v0c0 18.963-17.067 35.081-36.978 35.081 0 0-25.6-0.948-61.63-3.793 0 7.585-1.896 15.17-4.741 21.807l-41.719 94.815c-12.326 28.444-45.511 21.807-47.407 1.896v0-125.156c-36.030-2.844-71.111-6.637-99.556-9.481 0 1.896-0.948 4.741-1.896 6.637l-17.067 37.926c-4.741 11.378-18.963 8.533-18.963 0.948v-52.148c-12.326-2.844-19.911-5.689-19.911-8.533v0c0-2.844 7.585-5.689 19.911-8.533v-52.148c0.948-8.533 14.222-11.378 18.963 0.948l17.067 37.926c0.948 1.896 0.948 4.741 1.896 6.637 28.444-3.793 64.474-7.585 99.556-9.481v-124.207c0.948-20.859 34.133-27.496 47.407 0.948z" />
<glyph unicode="&#xe81f;" horiz-adv-x="948" d="M866.607 31.763h-786.015c-2.844 0-5.689 2.844-5.689 5.689v35.081c0 2.844 2.844 5.689 5.689 5.689h786.015c2.844 0 5.689-2.844 5.689-5.689v-35.081c0.948-2.844-1.896-5.689-5.689-5.689zM503.467 612.978h-362.193c-17.067 0-29.393-12.326-29.393-27.496l50.252-197.215c0-15.17 12.326-27.496 28.444-27.496h33.185v-235.141c0-5.689 4.741-10.43 11.378-10.43h196.267c6.637 0 11.378 4.741 11.378 10.43v235.141h18.015c15.17 0 28.444 12.326 28.444 27.496l43.615 197.215c-3.793 15.17-17.067 27.496-29.393 27.496z" />
<glyph unicode="&#xe820;" horiz-adv-x="948" d="M296.77 439.467c-4.741-4.741-9.481-9.481-14.222-9.481h-84.385c-4.741 0-9.481 4.741-9.481 9.481l-26.548 120.415c0 4.741 4.741 9.481 9.481 9.481h109.985c4.741 0 9.481-4.741 14.222-9.481l0.948-120.415zM454.163 439.467c0-4.741-5.689-9.481-11.378-9.481h-84.385c-5.689 0-9.481 4.741-9.481 9.481v120.415c0 4.741 4.741 9.481 9.481 9.481h109.985c5.689 0 9.481-4.741 9.481-9.481l-23.704-120.415z" />
<glyph unicode="&#xe821;" glyph-name="ico_roundCheck_ok" horiz-adv-x="948" d="M512.108 959.892c-281.276 0-510.92-229.536-510.92-510.812s229.536-510.812 510.812-510.812 510.92 229.536 510.92 510.812-229.536 510.812-510.812 510.812zM719.824 629.36l-183.629-407.548c-13.826-29.921-49.364-43.639-81.445-31.001l-5.725 3.349c-14.906 4.645-27.652 16.095-35.646 31.001l-107.909 195.186c-12.638 28.732 1.080 60.922 33.269 71.183 31.001 11.45 67.727-2.268 81.445-29.921l51.74-88.358 142.366 307.632c12.638 27.652 48.176 37.914 76.908 24.088 27.436-13.61 41.262-48.176 28.624-75.612v0z" />
<glyph unicode="&#xe822;" glyph-name="left_Arrow" horiz-adv-x="948" d="M642.844 869.926h-90.074c-18.015 0-36.030-7.585-50.252-21.807s-28.444-36.030-46.459-57.837c-25.6-28.444-50.252-61.63-75.852-93.867-32.237-43.615-64.474-86.281-93.867-133.689-21.807-32.237-50.252-75.852-50.252-115.674 0-36.030 21.807-68.267 39.822-100.504 25.6-43.615 54.044-82.489 82.489-122.311 39.822-54.044 82.489-108.089 129.896-155.496 3.793-3.793 7.585-7.585 10.43-10.43 10.43-18.015 32.237-32.237 57.837-32.237h90.074c36.030 0 64.474 28.444 64.474 64.474v713.956c-3.793 36.978-32.237 65.422-68.267 65.422z" />
<glyph unicode="&#xe823;" glyph-name="right_Arrow_yellow" horiz-adv-x="948" d="M236.089 804.504v-713.956c0-36.030 28.444-64.474 64.474-64.474h90.074c25.6 0 46.459 14.222 57.837 32.237 3.793 3.793 7.585 7.585 10.43 10.43 46.459 46.459 90.074 100.504 129.896 155.496 28.444 39.822 57.837 79.644 82.489 122.311 18.015 32.237 39.822 64.474 39.822 100.504 0 39.822-28.444 82.489-50.252 115.674-28.444 46.459-61.63 90.074-93.867 133.689-25.6 32.237-50.252 64.474-75.852 93.867-18.015 21.807-32.237 43.615-46.459 57.837s-32.237 21.807-50.252 21.807h-90.074c-36.030-0.948-64.474-29.393-68.267-65.422z" />
<glyph unicode="&#xe824;" glyph-name="icon-824" d="M627.27 659.541c22.625-11.23 34.034-39.728 23.601-62.356l-151.452-336.141c-11.415-24.679-40.704-35.992-67.174-25.565l-4.724 2.761c-12.288 3.839-22.836 13.277-29.391 25.565l-89.054 160.986c-10.381 23.697 0.893 50.244 27.44 58.705 25.565 9.444 55.862-1.868 67.174-24.679l42.681-72.882 117.457 253.701c10.433 22.836 39.741 31.311 63.438 19.909z" />
<glyph unicode="&#xe900;" d="M424.96-53.76l-78.848 93.184 297.984 334.848 41.984-144.384c5.12-18.432 0-46.080-14.336-60.416l-200.704-223.232c-9.216-13.312-32.768-13.312-46.080 0zM531.456 732.672l-256-287.744-65.536-208.896c-5.12-18.432 0-46.080 14.336-60.416l9.216-14.336 349.184 395.264-51.2 176.128z" />
<glyph unicode="&#xe901;" d="M540.672 871.936c0-18.432-18.432-32.768-36.864-32.768h-125.952c-18.432 0-36.864 14.336-36.864 32.768v51.2c0 18.432 18.432 36.864 36.864 36.864h125.952c18.432 0 36.864-14.336 36.864-36.864v-51.2zM815.104 583.168c0 14.336-9.216 36.864-23.552 46.080l-214.016 149.504c-14.336 9.216-18.432 5.12-14.336-9.216l97.28-232.448c5.12-14.336 23.552-32.768 41.984-32.768l74.752-18.432c18.432-5.12 32.768 5.12 32.768 23.552l5.12 73.728zM586.752 555.52l-348.16-395.264 106.496-120.832 297.984 334.848-56.32 181.248zM522.24 764.416c-5.12 18.432-27.648 32.768-46.080 32.768h-51.2c-23.552 0-41.984-14.336-46.080-32.768l-97.28-320.512 256 287.744-15.36 32.768z" />
<glyph unicode="&#xe902;" d="M355.328 448c0 86.016 69.632 156.672 156.672 156.672s156.672-70.656 156.672-156.672-69.632-156.672-156.672-156.672-156.672 70.656-156.672 156.672z" />
<glyph unicode="&#xe903;" d="M710.656 448c0 86.016 69.632 156.672 156.672 156.672s156.672-70.656 156.672-156.672-69.632-156.672-156.672-156.672-156.672 70.656-156.672 156.672z" />
<glyph unicode="&#xe904;" d="M734.208 448c0 72.704 59.392 133.12 133.12 133.12s133.12-60.416 133.12-133.12-59.392-133.12-133.12-133.12-133.12 59.392-133.12 133.12z" />
<glyph unicode="&#xe905;" d="M0 448c0 86.016 69.632 156.672 156.672 156.672s156.672-70.656 156.672-156.672-69.632-156.672-156.672-156.672-156.672 70.656-156.672 156.672z" />
<glyph unicode="&#xe906;" glyph-name="up_Arrow" horiz-adv-x="948" d="M117.496 210.089h713.956c36.030 0 64.474 28.444 64.474 64.474v90.074c0 25.6-14.222 46.459-32.237 57.837-3.793 3.793-7.585 7.585-10.43 10.43-46.459 46.459-100.504 90.074-155.496 129.896-39.822 28.444-79.644 57.837-122.311 82.489-32.237 18.015-64.474 39.822-100.504 39.822-39.822 0-82.489-28.444-115.674-50.252-46.459-28.444-90.074-61.63-133.689-93.867-32.237-25.6-64.474-50.252-93.867-75.852-21.807-18.015-43.615-32.237-57.837-46.459s-21.807-32.237-21.807-50.252v-90.074c0.948-36.030 29.393-64.474 65.422-68.267z" />
<glyph unicode="&#xe907;" glyph-name="down_Arrow" horiz-adv-x="948" d="M830.504 685.911h-713.956c-36.030 0-64.474-28.444-64.474-64.474v-90.074c0-25.6 14.222-46.459 32.237-57.837 3.793-3.793 7.585-7.585 10.43-10.43 46.459-46.459 100.504-90.074 155.496-129.896 39.822-28.444 79.644-57.837 122.311-82.489 32.237-18.015 64.474-39.822 100.504-39.822 39.822 0 82.489 28.444 115.674 50.252 46.459 28.444 90.074 61.63 133.689 93.867 32.237 25.6 64.474 50.252 93.867 75.852 21.807 18.015 43.615 32.237 57.837 46.459s21.807 32.237 21.807 50.252v90.074c-0.948 36.030-29.393 64.474-65.422 68.267z" />
<glyph unicode="&#xe908;" glyph-name="ico_dot" horiz-adv-x="948" d="M473.126 683.141c-128 0-231.348-105.244-231.348-234.193 0-129.896 103.348-234.193 231.348-234.193s231.348 105.244 231.348 234.193c0 128.948-103.348 234.193-231.348 234.193z" />
<glyph unicode="&#xe909;" horiz-adv-x="948" d="M763.6 436.9h-83.9c-5.5 0-10-4.1-10-9.2 0-5.2 4.4-9.2 10-9.2h83.9c5.5 0 10.4 4.1 10.4 9.2s-4.8 9.2-10.4 9.2z" />
<glyph unicode="&#xe90a;" d="M743.424 795.136h112.64v-686.080h-112.64v686.080z" />
<glyph unicode="&#xe90b;" horiz-adv-x="948" d="M738.5 884.1h-526.2c-43.6 0-60.7-13.3-60.7-56.9v-760.4c0-43.6 17.1-55 60.7-55h526.2c43.6 0 57.8 11.4 57.8 55v760.5c0.1 43.6-14.2 56.8-57.8 56.8v0z" />
<glyph unicode="&#xe90c;" horiz-adv-x="948" d="M429.511 516.267c0-32.237 25.6-58.785 57.837-58.785s57.837 26.548 57.837 58.785c0 32.237-26.548 58.785-57.837 58.785-32.237 0-57.837-26.548-57.837-58.785zM606.815 413.867c1.896 0 23.704-29.393 23.704-29.393s-34.133-72.059-54.044-66.37c-9.481 2.844-16.119 9.481-18.963 16.119-4.741 4.741-11.378 9.481-17.067 15.17l-18.963-97.659v-211.437c0-10.43-4.741-18.015-14.222-18.015s-14.222 8.533-14.222 18.015v161.185h-9.481v-161.185c0-10.43-9.481-18.015-18.963-18.015s-18.963 8.533-18.963 18.015v161.185l-14.222 147.911c-7.585-6.637-13.274-14.222-18.963-19.911-2.844-6.637-8.533-16.119-19.911-18.963-19.911-5.689-50.252 66.37-50.252 66.37s20.859 29.393 23.704 29.393c0.948 0 11.378-16.119 22.756-32.237 12.326 14.222 45.511 53.096 49.304 54.044 0 0.948 0.948 0 0.948 0 8.533 12.326 23.704 18.015 45.511 18.015 14.222 0 26.548-7.585 36.978-7.585 0 0 0 0 0 0s0 0 0 0c7.585-3.793 13.274-9.481 18.015-16.119 14.222-13.274 33.185-32.237 42.667-40.77 11.378 16.119 23.704 32.237 24.652 32.237z" />
<glyph unicode="&#xe90d;" horiz-adv-x="948" d="M647.585 729.6c0-36.978 29.393-66.37 66.37-66.37 36.030 0 65.422 29.393 65.422 66.37s-29.393 66.37-65.422 66.37c-36.978 0-66.37-29.393-66.37-66.37zM806.874 366.459l-19.911 62.578-0.948-11.378 40.77-168.77h-49.304v-202.904c0-12.326-11.378-22.756-23.704-22.756s-23.704 9.481-23.704 22.756v202.904h-18.963v-202.904c0-12.326-11.378-22.756-23.704-22.756s-23.704 9.481-23.704 22.756v202.904h-45.511l32.237 154.548-0.948 23.704-17.067-67.319c-4.741-14.222-17.067-17.067-27.496-6.637s-15.17 28.444-10.43 41.719l44.563 220.919c5.689 18.015 35.081 32.237 55.941 30.341 6.637 0.948 14.222 1.896 21.807 1.896 10.43 0 20.859-0.948 29.393-3.793 21.807-1.896 49.304-13.274 54.044-28.444l44.563-214.281c4.741-13.274 0-32.237-10.43-41.719-11.378-9.481-22.756-6.637-27.496 6.637z" />
<glyph unicode="&#xe90e;" horiz-adv-x="948" d="M148.859 806.4c0-39.822 33.185-73.007 73.956-73.007s73.956 32.237 73.956 73.007c0 39.822-33.185 73.007-73.956 73.007s-73.956-32.237-73.956-73.007zM371.674 416.711c4.741-15.17 0-35.081-11.378-46.459-12.326-11.378-25.6-8.533-30.341 6.637l-20.859 113.778-5.689-75.852v-366.933c0-14.222-12.326-25.6-28.444-25.6s-28.444 11.378-28.444 25.6v314.785h-18.963v-313.837c0-14.222-12.326-25.6-28.444-25.6s-28.444 11.378-28.444 25.6v367.881l-13.274 94.815-23.704-128.948c-4.741-14.222-18.015-18.015-30.341-6.637-11.378 10.43-16.119 31.289-11.378 45.511l45.511 268.326c4.741 13.274 16.119 21.807 29.393 24.652 1.896 1.896 4.741 0 7.585 0h42.667c2.844 0 4.741 0 7.585 0 1.896 0 4.741 0 6.637 0h46.459c1.896 0 3.793 1.896 5.689 0.948 16.119-0.948 29.393-8.533 35.081-24.652l53.096-274.015z" />
<glyph unicode="&#xe90f;" horiz-adv-x="948" d="M75.8 497.3c0 167.8 178.3 303.4 398.2 303.4s398.2-135.6 398.2-303.4c0-68.3-29.4-131.8-79.6-182-79.6-93.9 4.7-220 4.7-220-61.6 8.5-459.9 116.6-459.9 116.6-152.6 42.7-261.6 153.6-261.6 285.4v0z" />
<glyph unicode="&#xe910;" horiz-adv-x="948" d="M358.3 284.9c94.8-25.6 227.6-61.6 328.1-88.2-7.6 55 1.9 114.7 46.5 165.9l3.8 3.8c26.5 26.5 57.8 71.1 57.8 128.9-0.1 125.3-143.2 227.7-320.5 227.7-176.4 0-320.5-101.5-320.5-227.6 0-91 82.5-176.3 204.8-210.5v0z" />
<glyph unicode="&#xe911;" horiz-adv-x="948" d="M386.9 495.8c0-14.8-6.7-26.9-17.5-36.3-12.1-10.8-25.5-14.8-43-14.8s-30.9 5.4-43 14.8c-10.8 9.4-17.5 21.5-17.5 36.3v0c0 14.8 5.4 26.9 17.5 36.3s26.9 14.8 43 14.8 30.9-5.4 43-14.8c12.1-9.4 17.5-21.5 17.5-36.3zM525.4 532.1c-12.1 9.4-26.9 14.8-43 14.8s-30.9-5.4-43-14.8c-12.1-9.4-17.5-21.5-17.5-36.3v0c0-14.8 6.7-26.9 17.5-36.3 12.1-9.4 25.5-14.8 43-14.8s30.9 4 43 14.8c10.8 9.4 17.5 21.5 17.5 36.3s-5.4 26.9-17.5 36.3zM681.4 532.1c-12.1 9.4-26.9 14.8-43 14.8s-30.9-5.4-43-14.8c-12.1-9.4-17.5-21.5-17.5-36.3v0c0-14.8 6.7-26.9 17.5-36.3 12.1-9.4 25.5-14.8 43-14.8s30.9 4 43 14.8c10.8 9.4 17.5 21.5 17.5 36.3s-5.4 26.9-17.5 36.3z" />
<glyph unicode="&#xe912;" glyph-name="ico_check" horiz-adv-x="948" d="M806.9 737.2l-295.8-654.2c-21.8-47.4-79.6-70.2-129.9-49.3l-9.5 5.7c-23.7 7.6-44.6 26.5-56.9 50.3l-173.5 312.8c-20.9 46.5 1.9 97.7 52.1 114.7 50.3 19 108.1-4.7 129.9-48.4l82.5-142.2 228.5 494c20.9 44.6 76.8 61.6 124.2 37.9 47.4-22.7 69.2-77.7 48.4-121.3v0z" />
<glyph unicode="&#xe913;" glyph-name="ico_plus" horiz-adv-x="948" d="M926.9 571.5h-329.4v329.4h-247v-329.4h-329.4v-247h329.4v-329.4h247v329.4h329.4z" />
<glyph unicode="&#xe914;" glyph-name="ico_ko" horiz-adv-x="948" d="M105.6 110.4c0-52.6 43-84.4 83.4-84.4 40.9 0 64.8 18.1 89.7 49.9l192.8 249.6 196-254.4c22.3-29.7 45.1-45.1 84.4-45.1 52.6 0 90.8 39.3 90.8 90.3 0 26-13.3 49.4-27.6 67.4l-224.1 273.4 212.4 258.1c17.5 22.3 27.1 44.1 27.1 70.1 0 52-43 83.9-83.4 83.9s-64.3-18.1-89.2-49.9l-181.6-236.9-182.1 241.7c-22.8 29.7-45.1 45.1-84.4 45.1-52.6 0-90.8-39.3-90.8-90.3 0-26 13.3-49.4 27.6-67.4l211.9-257-225.2-274.6c-18.1-22.3-27.7-43.5-27.7-69.5z" />
<glyph unicode="&#xe915;" glyph-name="mv_user" d="M356.848 572.121c0 83.782 71.37 152.048 158.255 152.048s161.358-68.267 161.358-152.048-71.37-152.048-161.358-152.048c-86.885 0-158.255 68.267-158.255 152.048zM809.891 66.327v0 0c-86.885-74.473-195.491-114.812-313.406-114.812-96.194 0-186.182 27.927-260.655 77.576-21.721 12.412-31.030 21.721-31.030 21.721v0c-117.915 89.988-198.594 235.83-198.594 397.188 0 273.067 220.315 496.485 490.279 496.485s490.279-223.418 490.279-496.485c0-152.048-68.267-291.685-176.873-381.673zM806.788 202.861c52.752 68.267 83.782 152.048 83.782 245.139 0 220.315-176.873 400.291-394.085 400.291s-394.085-179.976-394.085-400.291c0-102.4 37.236-195.491 99.297-266.861 0 24.824-3.103 49.648-3.103 68.267-3.103 52.752 40.339 111.709 148.945 111.709h291.685c114.812 0 164.461-52.752 164.461-102.4 3.103-15.515 3.103-37.236 3.103-55.855z" />
<glyph unicode="&#xe916;" d="M986.5 451.4c0-257.2-179.1-439.8-477.8-439.8s-471.2 182.6-471.2 439.8c0 251 172.5 433 471.2 433s477.8-182 477.8-433z" />
<glyph unicode="&#xe917;" horiz-adv-x="948" d="M525.274 312.415c0 29.393-23.704 53.096-53.096 53.096s-53.096-23.704-53.096-53.096c0-29.393 23.704-53.096 53.096-53.096 30.341 0 53.096 23.704 53.096 53.096z" />
<glyph unicode="&#xe918;" horiz-adv-x="948" d="M339.437 319.052h-16.119c-1.896 0-3.793 0-4.741 0-18.015 1.896-31.289 15.17-31.289 30.341v26.548c0 17.067 16.119 30.341 36.030 30.341h6.637v142.222c0 1.896 0 3.793 0 5.689-11.378-19.911-33.185-32.237-57.837-32.237h-137.481c-24.652 0-46.459 13.274-57.837 32.237 0-1.896 0-3.793 0-5.689v-143.17h6.637c19.911 0 36.030-13.274 36.030-30.341v-26.548c0-15.17-13.274-27.496-31.289-30.341-1.896 0-3.793 0-4.741 0h-17.067c-17.067 0-30.341-11.378-30.341-24.652v-191.526c0-13.274 13.274-24.652 30.341-24.652h16.119c17.067 0 30.341 11.378 30.341 24.652v71.111c-26.548 8.533-45.511 32.237-45.511 60.681 0 35.081 30.341 64.474 66.37 64.474h138.43c36.978 0 66.37-28.444 66.37-64.474 0-28.444-18.963-52.148-45.511-60.681v-70.163c0-13.274 13.274-24.652 30.341-24.652h16.119c17.067 0 30.341 11.378 30.341 24.652v191.526c0 14.222-13.274 24.652-30.341 24.652zM355.556 374.993v-26.548c0-4.741-7.585-10.43-16.119-10.43h-16.119c-9.481 0-16.119 5.689-16.119 10.43v26.548c0 4.741 7.585 10.43 16.119 10.43h16.119c9.481 0 16.119-5.689 16.119-10.43zM66.37 338.963c-9.481 0-16.119 5.689-16.119 10.43v26.548c0 4.741 7.585 10.43 16.119 10.43h16.119c9.481 0 16.119-5.689 16.119-10.43v-26.548c0-4.741-7.585-10.43-16.119-10.43h-16.119zM87.23 233.719c0 24.652 20.859 43.615 46.459 43.615h138.43c25.6 0 46.459-19.911 46.459-43.615 0-24.652-20.859-43.615-46.459-43.615h-137.481c-26.548 0-47.407 19.911-47.407 43.615zM87.23 586.43c0 24.652 20.859 43.615 46.459 43.615h138.43c25.6 0 46.459-19.911 46.459-43.615 0-24.652-20.859-43.615-46.459-43.615h-137.481c-26.548-0.948-47.407 18.963-47.407 43.615zM926.341 697.363c0-69.215-59.733-126.104-134.637-126.104s-134.637 56.889-134.637 126.104 60.681 126.104 134.637 126.104 134.637-56.889 134.637-126.104z" />
<glyph unicode="&#xe919;" horiz-adv-x="948" d="M92.919 611.081c0 44.563 36.030 81.541 81.541 81.541h600.178c44.563 0 81.541-36.030 81.541-81.541v-326.163c0-44.563-36.030-81.541-81.541-81.541h-600.178c-44.563 0-81.541 36.030-81.541 81.541v326.163z" />
<glyph unicode="&#xe91a;" d="M912.5 446.8h-264.5v68.2h264.5v-68.2zM912.5 250h-264.5v-68.2h264.5v68.2zM912.5 382.5h-264.5v-68.2h264.5v68.2zM578.6 515h-264.5v-68.2h264.6v68.2zM578.6 250h-264.5v-68.2h264.6v68.2zM578.6 382.5h-264.5v-68.2h264.6v68.2z" />
<glyph unicode="&#xe91b;" d="M202.5 862.1v-381.6h-202.2v-313.1c0-73.6 58.6-133.6 130.6-133.6h762.5c72.1 0 130.6 60 130.6 133.6v694.7h-821.5zM202.5 167.7c0-38.5-30.7-70-68.4-70h-3.2c-37.8 0-68.5 31.4-68.5 70v235.3h140v-235.3h0.1zM961.9 167.7c0-38.5-30.7-70-68.5-70h-648.1c12.3 20.3 19.6 44.2 19.6 70v415.5h697.1l-0.1-415.5z" />
<glyph unicode="&#xe91c;" d="M817 710c-22.6 8.3-37.7 21.1-37.7 41.4 0 23.9 19.7 41.9 51.7 41.9 15.7 0 26.8-3.2 35-7.1l-7-25.4c-5.2 2.8-15.2 6.7-28.4 6.7-13.4 0-19.9-6.2-19.9-13.4 0-8.9 7.6-12.8 25.3-19.7 24.1-9 35.2-21.8 35.2-41.5 0-23.4-17.4-43.3-55-43.3-15.6 0-31 4.3-38.8 8.5l6.2 25.8c8.2-4.4 21.1-8.8 34.4-8.8 14.1 0 21.7 6 21.7 15.2 0.4 8.7-6.2 13.8-22.7 19.7zM627.4 791.2l10.4-57.3c3-16.7 5.9-34.7 8.2-48.8h0.2c2.3 15.1 5.5 31.7 9 49.2l11.4 56.9h33l11.1-58.7c3-16.4 5.2-31.3 7.3-46.8h0.5c2.2 15.6 5.1 31.7 8 48.6l11.2 56.9h31.3l-35.2-139.5h-33.4l-11.6 60.1c-2.6 14-4.8 27.1-6.6 43h-0.2c-2.6-15.8-4.6-29.1-8-43l-13-60.1h-33.9l-32.8 139.3 33.1 0.2zM495.3 791.2h84.1v-25.8h-53.4v-28.9h50.3v-25.7h-50.3v-33.1h56.2v-25.8h-86.9v139.3zM355.3 791.2h36l28.4-51.2c8.2-14.5 16.1-32.1 22.3-47.8h0.5c-1.7 18.3-2.4 37.3-2.4 58.4v40.6h28.4v-139.5h-32.4l-29.3 53.9c-8.2 14.9-17.2 32.9-23.5 49.2h-0.9c1-18.7 1.5-38.3 1.5-61.1v-42h-28.4v139.5h-0.2z" />
<glyph unicode="&#xe91d;" horiz-adv-x="726" d="M248.112 861.042c0 54.499 44.459 98.958 98.958 98.958s98.958-44.459 98.958-98.958c0-54.499-44.459-98.958-98.958-98.958s-98.958 44.459-98.958 98.958zM458.936 225.703c0 96.090-77.445 173.535-174.969 173.535-96.090 0-174.969-77.445-174.969-173.535s77.445-173.535 174.969-173.535c96.090 1.434 174.969 78.88 174.969 173.535zM196.482 493.894c27.249 8.605 57.367 14.342 87.485 14.342 11.473 0 22.947-1.434 34.42-1.434v110.431h-106.129c-10.039-1.434-15.776-5.737-15.776-27.249v-96.090zM725.692 202.756v-216.56c0-27.249-22.947-50.196-51.63-50.196s-51.63 22.947-51.63 50.196v215.126c-1.434 12.908-15.776 30.118-55.933 38.723 0-4.303 0-8.605 0-14.342 0-156.325-127.641-282.532-283.966-282.532s-282.532 127.641-282.532 282.532c0 83.182 35.854 157.759 94.655 209.389v154.891c0 94.655 70.275 127.641 117.602 127.641h159.193c28.683 0 51.63-22.947 51.63-50.196v-195.048c53.064-28.683 94.655-73.143 120.471-127.641 143.417-8.605 182.14-94.655 182.14-141.983z" />
<glyph unicode="&#xe91e;" horiz-adv-x="726" d="M283.966 131.048c-53.064 0-96.090 43.025-96.090 96.090s43.025 96.090 96.090 96.090 96.090-43.025 96.090-96.090c1.434-54.499-43.025-96.090-96.090-96.090z" />
<glyph unicode="&#xe91f;" horiz-adv-x="1175" d="M588.448 74.496c51.289-25.564 282.009-128.142 282.009-128.142 10.193-10.193 25.564-10.193 35.918-10.193 15.371 0 30.741 5.177 40.934 10.193 20.548 15.371 30.741 40.934 30.741 61.482l-56.466 292.202 230.72 204.994c20.548 15.371 25.564 46.112 20.548 66.66-10.193 25.564-30.741 40.934-56.466 46.112l-317.765 40.934-143.512 266.638c-25.564 46.112-107.594 46.112-128.142 0l-143.512-266.638-322.943-35.918c-25.564-5.177-51.289-20.548-56.466-46.112-10.193-25.564 0-51.289 20.548-66.66l230.72-204.994-56.466-292.202c-5.177-25.564 5.177-51.289 30.741-61.482 20.548-15.371 51.289-15.371 76.853-5.177l282.009 128.303z" />
<glyph unicode="&#xe920;" horiz-adv-x="1175" d="M764.157 182.090c-25.564-15.371-61.482-25.564-107.594-25.564-25.564 0-56.466 5.177-82.030 15.371s-51.289 20.548-66.66 40.934c-25.564 20.548-46.112 51.289-56.466 87.207h-40.934c-10.193 0-20.548 5.177-25.564 10.193-5.177 5.177-10.193 15.371-10.193 25.564s5.177 20.548 10.193 25.564c10.193 5.177 15.371 10.193 25.564 10.193h25.564c0 5.177 0 15.371 0 20.548h-25.564c-10.193 0-20.548 5.177-25.564 10.193-5.177 5.177-10.193 15.371-10.193 25.564s5.177 20.548 10.193 25.564c10.193 5.177 15.371 10.193 25.564 10.193h35.918c0 5.177 5.177 10.193 5.177 15.371 10.193 25.564 25.564 46.112 46.112 66.66s40.934 30.741 71.837 40.934c25.564 10.193 56.466 15.371 87.207 15.371 15.371 0 35.918 0 56.466-5.177s35.918-10.193 51.289-20.548c15.371-10.193 20.548-20.548 20.548-35.918 0-10.193-5.177-20.548-10.193-30.741-5.177-10.193-15.371-10.193-30.741-10.193-5.177 0-20.548 5.177-35.918 10.193-20.548 5.177-35.918 10.193-51.289 10.193-25.564 0-46.112-5.177-61.482-15.371s-25.564-20.548-30.741-35.918h122.964c5.177 0 10.193 0 20.548-5.177 5.177 0 10.193-5.177 15.371-10.193 5.177-5.177 5.177-10.193 5.177-15.371 0-10.193-5.177-15.371-10.193-25.564-5.177-5.177-15.371-10.193-25.564-10.193h-138.335v-20.386h133.319c5.177 0 10.193 0 20.548-5.177 10.193-5.177 10.193-5.177 15.371-10.193 5.177-5.177 5.177-10.193 5.177-15.371 0-10.193-5.177-15.371-10.193-25.564-5.177-5.177-15.371-10.193-25.564-10.193h-122.964c5.177-10.193 10.193-20.548 20.548-25.564 20.548-15.371 46.112-25.564 76.853-25.564 15.371 0 30.741 0 40.934 5.177l30.741 10.193c10.193 0 15.371 5.177 20.548 5.177 15.371 0 25.564-5.177 30.741-15.371s10.193-20.548 10.193-30.741c-0.809-30.579-11.164-45.95-36.727-56.305z" />
<glyph unicode="&#xe921;" horiz-adv-x="998" d="M810.7 512h-77.5v143.1c0 15.4-12.4 27.8-27.8 27.8s-27.8-12.4-27.8-27.8v-171.3c0.1-6.9 2.7-13.5 7.4-18.5v0 0c5-4.7 11.7-7.3 18.5-7.4h105.3c14.8-4.8 30.7 3.3 35.5 18.1s-3.3 30.7-18.1 35.5c-5 1.6-10.4 1.8-15.5 0.5z" />
<glyph unicode="&#xe922;" horiz-adv-x="998" d="M726.6 799v1.1c-93.3 0.5-175.9-45.8-225.6-116.9 12.1 4.2 25 5.6 38.1 4.1 14.4-1.6 27.9-6.8 39.5-14.8 37.3 37.3 88.8 60.5 145.7 60.8 114.7 0.6 208.1-91.8 208.7-206.5 0-0.4 0-0.7 0-1.1 0.4-114.2-91.9-207.2-206.1-207.6-0.1 0-0.2 0-0.4 0-97.4-0.5-179.6 66.3-202.4 156.8-7.1-5.7-14.7-11.7-22.7-18.1 5.7-9.3 10.2-19.2 13.7-29.6l0.2-0.7 30.6-105.9c47.6-41.4 109.6-66.5 177.6-66.9 150.9-0.8 273.9 120.8 274.7 271.7 0 0.5 0 1 0 1.5-0.1 150-121.6 271.6-271.6 272.1z" />
<glyph unicode="&#xe923;" horiz-adv-x="998" d="M556 217.3l-58.9 203.9c-4.7 14.3-12 27.6-21.5 39.3 57.1 45.2 96.4 77.5 96.4 77.5 30.1 27.2 34.6 72.8 10.4 105.3v0c-23.3 29.3-66 34.2-95.3 10.9-1.5-1.2-3-2.5-4.4-3.8 0 0-37.1-37.1-88.2-89.3-9.5 11.8-21.2 21.6-34.5 28.9l-190.6 98.9c-58.9 30.8-100.8-26.3-74.1-62.3v0l2.6-3 166.1-200.2c-50.9-53.7-101.3-108.2-139.8-153.8-3.4 3.3-7.3 6-11.5 8.2l-78.6 37c-24.5 11.9-41.1-11.5-31.1-25.6v0l70.1-81.9c-11.7-10.5-18.5-25.4-18.9-41.1v0c15.5-1.6 30.9 3.5 42.3 14.1l69.3-80.4c12.2-11.5 37.1 2.6 28.5 27.8l-25.6 83.8c-1.6 4.5-3.8 8.8-6.7 12.6 48.6 33.4 107.5 77.1 165.7 121.6l158.7-191.3 2.2-3c27.8-29.4 85.2 4.4 67.4 65.9z" />
<glyph unicode="&#xe924;" horiz-adv-x="948" d="M559.5 773.8l-76.3 11.9c-3.2 0-5.6-1.6-7.2-4.8l-27-105.6c-1.6-3.2 1.6-5.6 4.8-5.6l76.3-11.9c3.2 0 5.6 1.6 7.2 4.8l27 105.7c1.5 3.2-1.6 5.5-4.8 5.5z" />
<glyph unicode="&#xe925;" horiz-adv-x="948" d="M457 666.6l72.3-11.9c1.6-0.8 2.4-0.8 4-0.8 4.8 0 8.7 3.2 11.9 9.5l25.4 102.5c0.8 1.6 2.4 6.4-0.8 10.3-1.6 2.4-4.8 3.2-7.9 3.2l-73.1 11.9c-7.2 1.6-12.7-1.6-15.1-8.7l-25.5-102.5c-0.8-1.6-2.4-6.4 0.8-10.3 1.6-2.5 4.8-3.2 8-3.2zM480.8 778.6c0.8 1.6 1.6 2.4 1.6 2.4h1.6l73.9-11.9h0.8c0 0 0 0 0-0.8l-25.4-102.5c-0.8-1.6-0.8-2.4-0.8-2.4s-0.8 0-2.4 0.8l-72.3 11.9h-1.6l24.6 102.5z" />
<glyph unicode="&#xe926;" horiz-adv-x="948" d="M860.7 476.6h-499.1v69.9l23.8-15.1c19.1-15.1 38.9 0 38.9 0l71.5 85c0 31-38.9 23.8-38.9 23.8l-54.8-53.2-58.8 34.2c-15.9 22.3-40.5 37.4-67.6 37.4-47.7 0-86.6-42.9-86.6-97v-85h-102.5c-22.3-25.4 0-38.9 0-38.9h774.1c23.8 19 0 38.9 0 38.9z" />
<glyph unicode="&#xe927;" horiz-adv-x="948" d="M274.2 676.1c38.9 0 69.9 29.4 69.9 66.8s-31 66.8-69.9 66.8c-38.9 0-69.9-29.4-69.9-66.8-0.1-37.4 30.9-66.8 69.9-66.8z" />
<glyph unicode="&#xe928;" horiz-adv-x="948" d="M476 699.1l50.9-8.7c0-1.6 1.6 0 1.6 0 0 1.6 0 3.2-1.6 3.2l-50.9 8.7c-1.6 0-3.2 0-3.2-1.6s0.1-3.2 3.2-1.6z" />
<glyph unicode="&#xe929;" horiz-adv-x="948" d="M473.6 687.2l50.9-8.7c0 0 0.8 0 3.2 1.6 0 1.6 0 3.2-1.6 3.2l-50.9 8.7c-1.6 0-3.2 0-3.2-1.6s0.1-3.2 1.6-3.2z" />
<glyph unicode="&#xe92a;" horiz-adv-x="948" d="M729.6 708.7c35.8 0 64.4 28.6 64.4 62.8s-28.6 62.8-64.4 62.8-64.4-28.6-64.4-62.8c0-35 28.6-62.8 64.4-62.8z" />
<glyph unicode="&#xe92b;" horiz-adv-x="948" d="M731.1 680.1c-22.3 0-42.1-9.5-57.2-24.6l-0.8 0.8-86.6-97-71.5 32.5c0 0-40.5-5.6-29.4-34.2l97-58c0 0 23.8-8.7 37.4 11.9l25.4 30.2v-444.3c0-20.7 15.1-35.8 35.8-35.8s37.4 16.7 37.4 35.8v274.3h25.4v-274.2c0-20.7 16.7-35.8 37.4-35.8s37.4 16.7 37.4 35.8v485.6c-1 54-40 97-87.7 97z" />
<glyph unicode="&#xe92c;" horiz-adv-x="948" d="M511.8 750c-2.4 0-5.6 0-10.3 1.6-1.6-3.2-1.6-5.6-3.2-8.7l11.9-1.6 1.6 8.7z" />
<glyph unicode="&#xe92d;" horiz-adv-x="948" d="M497.5 717.4c1.6-1.6 4.8-3.2 7.2-3.2l3.2 10.3c-3.2 0-7.2 1.6-10.3 1.6-1.7-2.3-0.1-5.5-0.1-8.7z" />
<glyph unicode="&#xe92e;" horiz-adv-x="948" d="M509.4 727.7l1.6 8.7-11.9 1.6c-1.6-1.6-1.6-5.6-1.6-8.7 4.8 0 7.1 0 11.9-1.6z" />
<glyph unicode="&#xe92f;" horiz-adv-x="948" d="M513.4 751.6l3.2 10.3c-3.2 0-5.6 0-7.2 0-3.2-1.6-4.8-4-6.4-7.2 3.2-1.5 5.6-1.5 10.4-3.1z" />
<glyph unicode="&#xe930;" horiz-adv-x="948" d="M530.1 755.6c0-1.6 0-4.8 0-5.6h4.8c-1.6 3.2-3.2 4.8-4.8 5.6z" />
<glyph unicode="&#xe931;" horiz-adv-x="948" d="M494.3 729.3c0 3.2 0 7.2 1.6 10.3l-8.7 1.6c-1.6-4.8 0-8.7 1.6-11.9 1.5 0 4.7 0 5.5 0z" />
<glyph unicode="&#xe932;" horiz-adv-x="948" d="M499.1 753.2c-1.6 0-4.8 1.6-5.6 1.6-1.6-3.2-4.8-5.6-4.8-10.3l8.7-1.6c0.1 4.7 1.7 7.1 1.7 10.3z" />
<glyph unicode="&#xe933;" horiz-adv-x="948" d="M493.5 720.6c0 1.6 0 4.8 0 5.6h-4.8c1.6-1.6 3.2-4.8 4.8-5.6z" />
<glyph unicode="&#xe934;" horiz-adv-x="948" d="M503.8 761.9c-2.4-1.6-4.8-2.4-6.4-4l4.8-1.6c0.1 1.6 1.6 3.2 1.6 5.6z" />
<glyph unicode="&#xe935;" horiz-adv-x="948" d="M529.3 723c4.8 1.6 5.6 5.6 7.2 10.3l-8.7 1.6c-0.8-4-2.4-7.2-3.2-10.3 1.5 0 3.1-1.6 4.7-1.6z" />
<glyph unicode="&#xe936;" horiz-adv-x="948" d="M535.6 747.6c-0.8 0-4 0-5.6 0 0-3.2 0-7.2-1.6-10.3l8.7-1.6c0.1 4.8 0.1 8.7-1.5 11.9z" />
<glyph unicode="&#xe937;" horiz-adv-x="948" d="M522.1 722.2c0.8-1.6-0.8-4.8-2.4-6.4 3.2 1.6 4.8 3.2 7.2 4.8l-4.8 1.6z" />
<glyph unicode="&#xe938;" horiz-adv-x="948" d="M516.6 749.2l-1.6-8.7 11.9-1.6c-1.6 2.4 0 5.6 0 8.7-3.2 0-7.2 0-10.3 1.6z" />
<glyph unicode="&#xe939;" horiz-adv-x="948" d="M526.9 750.8c0 4 0 5.6 0 8.7-3.2 1.6-4.8 3.2-7.2 3.2l-3.2-10.3c3.2 0 7.2-1.6 10.4-1.6z" />
<glyph unicode="&#xe93a;" horiz-adv-x="948" d="M521.3 721.4c-3.2 1.6-5.6 1.6-10.3 3.2l-3.2-10.3c3.2 0 5.6 0 8.7 0 1.7 3.1 3.2 4.7 4.8 7.1z" />
<glyph unicode="&#xe93b;" horiz-adv-x="948" d="M511 727.7c3.2 0 7.2-1.6 10.3-3.2 1.6 3.2 3.2 5.6 3.2 8.7l-11.9 1.6-1.6-7.1z" />
<glyph unicode="&#xe93c;" horiz-adv-x="948" d="M450.2 711.6h-342.2c-14.3 0-25.4-10.3-25.4-25.4v-476.4c0-13.5 11.9-25.4 25.4-25.4h341.4c14.3 0 25.4 10.3 25.4 25.4v478c0.8 12.7-11.1 23.8-24.6 23.8z" />
<glyph unicode="&#xe93d;" horiz-adv-x="948" d="M481.1 687c0.8 7.9-1.6 15.1-7.1 20.6-5.6 6.4-14.3 10.4-23 10.4h-342.2c-18.3 0-31.8-13.5-31.8-31.8v-476.4c0-16.7 15.1-31.8 31.8-31.8h341.4c18.3 0 31.8 13.5 31.8 31.8l-0.9 477.2zM467.6 209.8c0-11.1-7.9-18.3-18.3-18.3h-341.3c-9.5 0-18.3 8.7-18.3 18.3v476.4c0 11.1 7.9 18.3 18.3 18.3h342.2c4.8 0 10.3-2.4 13.5-5.6 1.6-2.4 4-5.6 4-11.1l-0.1-478z" />
<glyph unicode="&#xe93e;" horiz-adv-x="948" d="M395.4 341.6h-231.9c-5.6 0-9.5-4-9.5-9.5s4-9.5 9.5-9.5h231.8c5.6 0 9.5 4 9.5 9.5-0.7 5.5-4.6 9.5-9.4 9.5z" />
<glyph unicode="&#xe93f;" horiz-adv-x="948" d="M395.4 290h-231.9c-5.6 0-9.5-4-9.5-9.5 0-5.6 4-9.5 9.5-9.5h231.8c5.6 0 9.5 4 9.5 9.5 0.1 5.5-4.6 9.5-9.4 9.5z" />
<glyph unicode="&#xe940;" horiz-adv-x="948" d="M693.9 324.1c-31.8 0-55.6-23.8-55.6-55.6 0-32.6 23.8-56.4 55.6-56.4s55.6 23.8 55.6 55.6v1.6c0 31-23.8 54.8-55.6 54.8z" />
<glyph unicode="&#xe941;" horiz-adv-x="948" d="M711.4 682.2c-59.6 0-102.4-18.3-138.2-46.1-11.9-9.5-17.5-22.2-17.5-35.7 0-25.4 21.4-46.1 46.1-46.1 11.9 0 22.2 5.6 30.2 10.3 23.8 18.3 48.4 26.2 77.8 26.2 38.1 0 61.9-17.5 61.9-47.6v-1.6c0-32.6-26.2-50-84.2-58-21.4-2.4-34.1-18.3-30.2-39.7l6.4-44.5c2.4-18.3 17.5-32.6 35.7-32.6h4c19.8 0 32.6 15.9 35.7 32.6l1.6 11.9c72.3 14.5 130.3 48.6 130.3 132.8v1.6c0 88.1-65.1 136.5-159.6 136.5z" />
<glyph unicode="&#xe942;" horiz-adv-x="948" d="M271.5 569.5c-15.9 0-31.8 1.6-47.6 4h-1.6c-2.4-13.5-4-27.8-4-43.7h52.4v39.7h0.8z" />
<glyph unicode="&#xe943;" horiz-adv-x="948" d="M237.4 422.6c10.3-5.6 22.2-7.9 35.7-7.9v48.4c-15.9 0-31.8-1.6-47.6-4 2.4-12.7 6.3-25.4 11.9-36.5z" />
<glyph unicode="&#xe944;" horiz-adv-x="948" d="M223.1 474.2h2.4c14.3 2.4 30.2 2.4 47.6 4v39.7h-52.4c-0.8-15.9 0.8-30.2 2.4-43.7z" />
<glyph unicode="&#xe945;" horiz-adv-x="948" d="M225.5 586.2c14.3-1.6 30.2-2.4 47.6-4v48.4c-11.9-1.6-25.4-4-35.7-7.9-5.6-10.3-9.5-23-11.9-36.5z" />
<glyph unicode="&#xe946;" horiz-adv-x="948" d="M366 591.7c-7.9 9.5-15.9 17.5-26.2 22.2 2.4-7.9 5.6-17.5 6.4-26.2 7.1 0.8 13.5 2.4 19.8 4z" />
<glyph unicode="&#xe947;" horiz-adv-x="948" d="M205.6 516.3h-38.1c1.6-18.3 6.4-35.7 17.5-50 7.9 2.4 17.5 4 25.4 5.6-3.2 14.2-4.8 28.5-4.8 44.4z" />
<glyph unicode="&#xe948;" horiz-adv-x="948" d="M209.6 574.2c-9.5 1.6-17.5 4-25.4 5.6-9.5-14.3-15.9-31.8-17.5-50h38.1c0.8 15.9 2.4 30.2 4.8 44.4z" />
<glyph unicode="&#xe949;" horiz-adv-x="948" d="M192.1 454.4c7.9-9.5 15.9-17.5 26.2-22.2-2.4 7.9-5.6 17.5-6.4 26.2-6.3-0.9-12.6-2.5-19.8-4z" />
<glyph unicode="&#xe94a;" horiz-adv-x="948" d="M219.1 613.9c-9.5-5.6-18.3-13.5-26.2-22.2 6.4-1.6 11.9-2.4 19.9-4 0.8 8.8 3.1 18.3 6.3 26.2z" />
<glyph unicode="&#xe94b;" horiz-adv-x="948" d="M349.3 471.8c9.5-1.6 17.5-4 25.4-5.6 9.5 14.3 15.9 31.8 17.5 50h-38.1c-2.4-15.8-4-30.1-4.8-44.4z" />
<glyph unicode="&#xe94c;" horiz-adv-x="948" d="M349.3 574.2c2.4-14.3 4-28.6 4-44.5h38.1c-1.6 18.3-6.4 35.7-17.5 50-7.9-1.5-15.8-3.9-24.6-5.5z" />
<glyph unicode="&#xe94d;" horiz-adv-x="948" d="M339.8 432.1c10.3 6.4 18.3 14.3 26.2 22.2-6.4 1.6-13.5 2.4-19.8 4-2.4-8.7-4-18.2-6.4-26.2z" />
<glyph unicode="&#xe94e;" horiz-adv-x="948" d="M335 571.9h-1.6c-14.3-2.4-30.2-2.4-47.6-4v-39.7h52.4c0.8 14.3-0.8 29.4-3.2 43.7z" />
<glyph unicode="&#xe94f;" horiz-adv-x="948" d="M321.6 623.5c-10.3 5.6-22.2 7.9-35.7 7.9v-48.4c15.9 0 31.8 1.6 47.6 4-4 12.7-6.4 25.4-11.9 36.5z" />
<glyph unicode="&#xe950;" horiz-adv-x="948" d="M285.8 415.4c11.9 1.6 25.4 4 35.7 7.9 5.6 11.9 7.9 23.8 11.9 38.1-14.3 1.6-30.2 2.4-47.6 4v-50z" />
<glyph unicode="&#xe951;" horiz-adv-x="948" d="M287.4 516.3v-39.7h-1.6c15.9 0 31.8-1.6 47.6-4h2.4c2.4 13.5 4 27.8 4 43.7h-52.4z" />
<glyph unicode="&#xe952;" horiz-adv-x="948" d="M331.1 409.1c19.1 0 34.9 15.1 34.9 34.9 0 19.1-15.9 34.9-34.9 34.9s-34.9-15.9-34.9-34.9c-0.1-19.8 15-34.9 34.9-34.9z" />
<glyph unicode="&#xe953;" horiz-adv-x="948" d="M439.9 428.9l-46.9-37.3c-41.3 11.9-85 11.1-126.2-2.4-5.6-1.6-9.5-6.4-11.1-11.9 0-1.6-1.6-4-1.6-5.6v-102.4c0-9.5 6.4-15.9 15.9-15.9s15.9 7.9 15.9 15.9v92.9c2.4 1.6 5.6 1.6 7.9 2.4v-228.6c0-9.5 6.4-15.9 15.9-15.9s15.9 6.4 15.9 15.9v122.2h11.1v-122.2c0-9.5 6.4-15.9 15.9-15.9s15.9 6.4 15.9 15.9v227.9c6.4-1.6 13.5-2.4 19.8-5.6h3.2c1.6 0 1.6 0 2.4 0h4.8l1.6 1.6h1.6l1.6 1.6 54 41.3c9.5 6.4 11.1 17.5 5.6 23.8-5.8 6.3-16.1 7.9-23.2 2.3z" />
<glyph unicode="&#xe954;" horiz-adv-x="948" d="M794.8 409.1c19.1 0 34.9 15.1 34.9 34.9 0 19.1-15.9 34.9-34.9 34.9-19.1 0-34.9-15.9-34.9-34.9-0.1-19.8 15.8-34.9 34.9-34.9z" />
<glyph unicode="&#xe955;" horiz-adv-x="948" d="M870.2 376.5c-1.6 5.6-5.6 11.1-11.1 11.9-41.3 13.5-85 15.1-126.2 2.4l-46.9 37.3c-6.4 5.6-17.5 4-23-2.4s-4-17.5 5.6-23.8l54-41.3 1.6-1.6h1.6l1.6-1.6h3.2c1.6 0 1.6 0 2.4 0h4c6.4 2.4 13.5 4 19.8 5.6v-227c0-9.5 6.4-15.9 15.9-15.9s15.9 6.4 15.9 15.9v122.2h11.1v-122.2c0-9.5 6.4-15.9 15.9-15.9s15.9 6.4 15.9 15.9v228.6c2.4-1.6 5.6-1.6 7.9-2.4v-92.9c0-7.9 6.4-15.9 15.9-15.9s15.9 6.4 15.9 15.9v102.5c-0.2 0.8-1 3.9-1 4.7z" />
<glyph unicode="&#xe956;" horiz-adv-x="948" d="M154 409.1c19.1 0 34.9 15.1 34.9 34.9 0 19.1-15.9 34.9-34.9 34.9s-34.9-15.9-34.9-34.9c0-19.8 15.9-34.9 34.9-34.9z" />
<glyph unicode="&#xe957;" horiz-adv-x="948" d="M226.3 390c-13.5 4.8-27.8 7.1-42.1 9.5v0c-4 0.8-8.7 0.8-12.7 0.8-1.6 0-3.2 0-4.8 0-3.2 0-5.6 0-8.7 0-3.2 0-5.6 0-8.7 0-1.6 0-3.2 0-4.8 0-4 0-8.7-0.8-12.7-0.8v0c-14.3-1.6-27.8-4.8-42.1-9.5-5.6-1.6-9.5-6.4-11.1-11.9 0-1.6-1.6-4-1.6-5.6v-102.4c0-9.5 6.4-15.9 15.9-15.9s15.9 7.9 15.9 15.9v92.9c2.4 0.8 4.8 1.6 7.1 2.4 0-0.8 0.8-0.8 1.6-1.6v-226.3c0-9.5 6.4-15.9 15.9-15.9 0.8 0 1.6 0 2.4 0s1.6 0 2.4 0c9.5 0 15.9 6.4 15.9 15.9v122.3h6.4v-122.3c0-9.5 6.4-15.9 15.9-15.9 0.8 0 1.6 0 3.2 0.8 0.8 0 1.6-0.8 2.4-0.8 7.9 0 15.9 6.4 15.9 15.9v224.7c2.4-0.8 5.6-1.6 7.9-2.4v-89.7c0-7.9 6.4-15.9 15.9-15.9s15.9 6.4 15.9 15.9v102.5c0 1.6-1.6 4-1.6 5.6-0.2 5.5-4.2 11-9.7 11.8z" />
<glyph unicode="&#xe958;" horiz-adv-x="948" d="M559.8 663.2c32.6 0 58 25.4 58 56.4s-25.4 58-58 58c-32.6 0-58-25.4-58-56.4s27-58 58-58z" />
<glyph unicode="&#xe959;" horiz-adv-x="948" d="M692.4 633.8c-83.4 27-172.3 27-256.5 0-13.5-4-21.4-17.5-21.4-31v-199.3c0-17.5 13.5-31 31-31s31 13.5 31 31v176.3c5.6 1.6 11.1 2.4 15.9 4v-434.3c0-17.5 13.5-31 31-31s31 13.5 31 31v233.4h19.6v-233.4c0-17.5 13.5-31 31-31s31 13.5 31 31v434.3c5.6-1.6 11.1-2.4 15.9-4v-176.3c0-17.5 13.5-31 31-31s31 13.5 31 31v197.8c1.5 13.4-8.1 26.9-21.5 32.5z" />
<glyph unicode="&#xe95a;" horiz-adv-x="948" d="M662.5 486.4v121.3c-0.7 35.6-29 65.3-64.6 65.3h-58.1v-25.5c0-18.2-16-34.2-32.7-34.2h-191c-18.2 0-32.7 16-32.7 34.2v25.7h-58.1c-35.6 0-65.3-29.8-65.3-65.3v-462.6c0-35.6 29.8-65.3 65.3-65.3h373.2c35.6 0 63.9 29.8 63.9 65.3v68.3c73.7 0.4 132.9 61.3 132.9 136.5 1.6 75.2-59.1 135.9-132.8 136.3z" />
<glyph unicode="&#xe95b;" horiz-adv-x="948" d="M836.7 351.4c0 80.3-52.7 148.5-124.9 170.5v144c-0.7 40-31.9 72.6-71.9 72.6h-95.1c0 75.5-59.5 136.5-133.5 136.5s-133.7-61-133.7-136.5h-95.1c-40 0-71.2-32.7-71.2-72.6v-572.2c0-40 32.7-72.6 71.2-72.6h458.2c40 0 71.2 32.7 71.2 72.6v87.3c72.2 21.9 124.8 90 124.8 170.4zM411.3 815.5c41.4 0 75.6-34.2 75.6-77s-34.2-77-75.6-77c-41.4 0-75.6 34.2-75.6 77s34.2 77 75.6 77zM662.5 145.1c0-35.6-28.3-65.3-63.9-65.3h-373.2c-35.6 0-65.3 29.8-65.3 65.3v462.6c0 35.6 29.8 65.3 65.3 65.3h58.1v-25.5c0-18.2 14.5-34.2 32.7-34.2h191c16.7 0 32.7 16 32.7 34.2v25.7h58.1c35.6 0 63.9-29.8 64.6-65.3v-78.4c-0.2 0-0.5 0-0.7 0-96.6 0-175.1-79.9-175.1-177.9s78.4-177.9 175.1-177.9c0.2 0 0.5 0 0.7 0v-28.6zM711.9 223.3v0c-0.9-0.4-1.8-0.7-2.8-1.1h-0.1c-0.9-0.3-1.8-0.7-2.7-1-0.1 0-0.1 0-0.2-0.1-0.9-0.3-1.8-0.6-2.7-0.9-0.1 0-0.2-0.1-0.2-0.1-0.9-0.3-1.8-0.6-2.7-0.9-0.1 0-0.2 0-0.2-0.1-0.9-0.3-1.8-0.5-2.7-0.8-0.1 0-0.2 0-0.2-0.1-0.9-0.3-1.9-0.5-2.8-0.7-0.1 0-0.1 0-0.2 0-1-0.2-1.9-0.5-2.9-0.7 0 0 0 0-0.1 0-9.2-2.1-18.8-3.2-28.6-3.2v0c-0.2 0-0.5 0-0.7 0-74 0-133.6 61-133.6 136.5s59.5 136.5 133.6 136.5c0.2 0 0.5 0 0.7 0v0c8.6 0 17.1-0.9 25.4-2.5h0.1c0.9-0.2 1.9-0.4 2.8-0.6 0.1 0 0.2 0 0.3-0.1 0.9-0.2 1.8-0.4 2.7-0.6 0.1 0 0.2-0.1 0.4-0.1 0.9-0.2 1.8-0.5 2.6-0.7 0.1 0 0.3-0.1 0.4-0.1 0.9-0.2 1.7-0.5 2.6-0.7 0.1 0 0.3-0.1 0.4-0.1 0.9-0.3 1.7-0.5 2.6-0.8 0.1 0 0.2-0.1 0.4-0.1 0.9-0.3 1.7-0.6 2.6-0.9 0.1 0 0.2-0.1 0.3-0.1 0.9-0.3 1.8-0.6 2.6-1 0.1 0 0.1 0 0.2-0.1 0.9-0.3 1.8-0.7 2.7-1.1v0c49.5-20.2 84.6-69.3 83.5-126.8 0-57.7-34.4-106.7-83.5-126.9z" />
<glyph unicode="&#xe95c;" horiz-adv-x="948" d="M718.4 439.3c-10.1 4.4-22.5 1.4-26.9-8.7l-50.1-109.6-18.2 31.2c-5.8 13.1-17.4 17.4-28.3 13.1-11.7-4.4-16-16-11.7-25.5l37-69.7c2.9-5.8 7.3-10.1 13.1-11.7l2.9-1.4c11.7-4.4 22.5 0 28.3 11.7l63.9 143.8c4.5 10 0.2 21-10 26.8z" />
<glyph unicode="&#xe95d;" horiz-adv-x="948" d="M221.7 564.9h92.2v-95.1h-92.2v95.1z" />
<glyph unicode="&#xe95e;" horiz-adv-x="948" d="M221.7 397.9h92.2v-95.1h-92.2v95.1z" />
<glyph unicode="&#xe95f;" horiz-adv-x="948" d="M221.7 231.6h92.2v-95.1h-92.2v95.1z" />
<glyph unicode="&#xe960;" glyph-name="flexibilidad" horiz-adv-x="948" d="M551.5 258.2l-43.7 19.3c-2.3 1.2-5 1.5-7.7 1.9 4.3 32.5 8.1 73.8 11.6 114.8h142.2c23.2 2.3 31.3 39.8-1.9 54.5l-108.2 47.9c-7.3 3.1-15.8 4.6-24.4 4.6 2.3 42.1 3.9 71.5 3.9 71.5 0 23.2-18.2 42.5-40.2 42.5h-0.4c-22 0-40.2-19.3-40.2-42.5 0 0 1.5-29.4 4.3-71.5-8.9 0-17-1.5-24.4-4.6l-108.6-47.9c-32.9-14.7-24.7-52.2-1.9-54.5h142.6c3.1-41 7-82.3 11.2-114.8-2.3-0.4-5-0.8-7.3-1.9l-43.7-19.3c-13.5-5.8-10.4-21.3-1.2-22h59.5c3.1-14.3 6.2-22.8 9.7-22.8h0.4c3.5 0 7 8.5 10 22.8h59.2c9.2 0.8 12.7 16.2-0.8 22zM299.1 139.2c-136.5 74.2-212.6 218.7-188.7 359.4 13.4 80.4 57.6 151.2 124.7 201.5l32.6-31c7.7-7.3 15.5-12 22-13.1 4.6-0.8 8.9 0 12.4 2.7 6.6 5.4 11.2 16.6 12.8 32.1l12 124.8c3.1 29.8-11.6 51.8-37.1 56.8-7 1.2-14.7 1.2-22.4-0.4l-119.8-22.4c-17.4-3.1-29-10.4-31.7-19.7-2.3-8.5 3.1-19.3 14.7-30.5l32-30.3c-79-64.7-130.9-153.1-147.6-253.1-31-183.6 64.9-370.7 239.2-465 4.6-2.7 9.3-4.3 14.3-5 20.1-3.9 41 6.2 51 25.5 12.4 24.4 3.5 54.5-20.4 67.7zM931 347.5c30.9 184-64.9 370.7-239.3 465.4-24 12.8-53 3.5-65.3-20.9-12.4-24-3.5-54.1 20.5-67.3 136.5-74.2 212.6-218.7 188.7-359.4-12.5-74.7-51.6-141.5-111-191l-55.6 52.6c-7.3 7.3-15.1 12-21.6 13.1-5 0.8-8.9 0-12.4-2.7-7-5.4-11.6-16.6-12.8-32.1l-12.4-124.5c-2.7-30.1 12-52.6 37.5-57.2 7-1.2 14.3-1.2 22 0.4l119.8 22.4c17.4 3.5 29.4 10.4 31.7 19.7 2.3 8.5-2.7 19.3-14.3 30.5l-10 9.4c71.7 63.6 118.8 147.6 134.5 241.6z" />
<glyph unicode="&#xe961;" glyph-name="euro" horiz-adv-x="948" d="M874.3 213.4c-15.8 17-37.7 25.9-65.2 25.9-10.5 0-23.9-2.8-40.1-8.5l-60.7-25.1c-21.1-8.1-48.2-12.1-81.8-12.1-60.7 0-111.4 16.6-151.9 50.2-16.6 14.2-30.8 31.2-42.1 50.6h245.4c21.9 0 40.5 5.7 55.1 17s22.3 26.7 22.3 45.8c0 13-3.6 24.3-10.5 33.6-6.5 9.3-16.2 16.6-27.9 21.5-12.1 4.9-25.1 7.3-38.9 7.3h-279c-0.4 8.5-0.8 28.8-0.8 37.3 0 6.5 0.4 12.6 0.8 18.6h279c21.9 0 40.5 5.7 55.1 17s22.3 26.3 22.3 45.8c0 13-3.6 24.3-10.5 33.6-6.5 9.3-16.2 16.6-27.9 21.5-12.1 4.9-25.1 7.3-38.9 7.3h-244.5c15.8 27.5 37.7 50.6 65.6 68 34 21.9 76.9 32.8 128.8 32.8 31.6 0 66.4-6.9 104.5-20.7 35.2-11.7 60.7-17.8 76.5-17.8 26.3 0 46.2 8.5 59.9 24.7s20.7 36.9 20.7 61.6c0 29.6-15.4 53.5-45.4 72.1-30.4 18.6-66.4 31.6-107.7 39.7-41.3 7.7-79.4 11.7-114.6 11.7-64 0-123.1-9.7-177.8-29.2-54.3-19.4-101.7-47-141.3-83-39.7-35.6-70.5-77.8-91.9-126.4-4.9-10.9-8.9-22.3-12.6-33.6h-72.5c-22.3 0-40.5-5.7-55.9-16.6-15-11.3-22.7-26.7-22.7-45.8 0-19.4 7.3-34.8 22.3-46.2 15-11.3 33.6-16.6 56.3-16.6h53.1c0-15 0.8-41.7 1.6-55.9h-54.7c-22.3 0-40.5-5.7-55.9-16.6-15-11.3-22.7-26.7-22.7-45.8 0-19.4 7.3-34.8 22.3-46.2 15-11.3 33.6-16.6 56.3-16.6h78.6c22.3-68 59.1-124.7 111.4-168.9 39.3-33.6 85-59.1 137.3-76.9 52.2-17.4 106.5-26.3 162.4-26.3 89.5 0 162.4 15.4 219.1 45.8 42.1 21.9 63.2 50.2 63.2 85-0.1 23.2-7.7 43.4-23.5 60.4z" />
<glyph unicode="&#xe962;" glyph-name="asento" horiz-adv-x="948" d="M874.8 384.2l-8.2 16.3c-8.5 17-30.5 27.6-49.6 23.7l-359.3-71.9c-18.8-3.9-41.5 6.7-50 23l-252.3 479.2c-8.9 16.3-30.1 23.4-47.5 15.6l-17.4-7.8c-17.4-8.2-27.6-29.4-23-47.5l199.2-759.4c4.6-17.7 24.1-32.6 43.6-32.6h3.2c19.1 0 34.7 0.7 34.7 1.8l-0.4 37.6v28.4c0 18.4 6.4 47.5 14.5 64.5l23.7 23c17.4 7.4 47.8 13.8 67 13.8h140.3c19.1 0 49.3-6.4 67-13.8l23.7-23c8.2-17 14.5-46.1 14.5-64.5v-28.4l-0.4-35.4c0-1.1 12.4-3.9 27.6-3.9 15.6 0 34 14.2 41.1 31.5l109.9 267.9c7.3 17.3 6.2 44.9-1.9 61.9z" />
<glyph unicode="&#xe963;" horiz-adv-x="948" d="M797.5 357.5h-151.2c-10.1 0-18.3 8.3-18.3 18.3v206.6c0 10.1 8.3 18.3 18.3 18.3h151.1c10.1 0 18.3-8.3 18.3-18.3v-206.5c0.1-10.1-8.2-18.4-18.2-18.4z" />
<glyph unicode="&#xe964;" horiz-adv-x="948" d="M376.5 708.3c13.7-3.3 27.4 4.1 31.1 16.6 16.3 59.5 74.7 101.3 141.6 101.3 66.6 0 125-41.8 141.6-101.3 3-10.4 13.3-17.7 24.4-17.7 2.2 0 4.4 0.4 6.7 0.7 13.7 3.3 21.8 16.3 18.1 28.8-22.2 80.3-101 136.5-190.8 136.5-90.2 0-169-56.2-191.2-136.4-3.3-12.6 4.8-25.5 18.5-28.5z" />
<glyph unicode="&#xe965;" horiz-adv-x="948" d="M78.1 113c-27 0-48.8-20.3-48.8-45.1s21.8-45.1 48.8-45.1 48.8 20.3 48.8 45.1c0 24.7-21.8 45.1-48.8 45.1z" />
<glyph unicode="&#xe966;" horiz-adv-x="948" d="M236 113c-27 0-48.8-20.3-48.8-45.1s21.8-45.1 48.8-45.1 49.2 20.3 49.2 45.1c0 24.7-22.2 45.1-49.2 45.1z" />
<glyph unicode="&#xe967;" horiz-adv-x="948" d="M710 113c-27 0-48.8-20.3-48.8-45.1s21.8-45.1 48.8-45.1 48.8 20.3 48.8 45.1c0 24.7-21.8 45.1-48.8 45.1z" />
<glyph unicode="&#xe968;" horiz-adv-x="948" d="M394.2 113c-27 0-49.2-20.3-49.2-45.1s22.2-45.1 49.2-45.1c26.6 0 48.8 20.3 48.8 45.1 0 24.7-22.1 45.1-48.8 45.1z" />
<glyph unicode="&#xe969;" horiz-adv-x="948" d="M552.1 113c-27 0-49.2-20.3-49.2-45.1s22.2-45.1 49.2-45.1 48.8 20.3 48.8 45.1c0 24.7-21.8 45.1-48.8 45.1z" />
<glyph unicode="&#xe96a;" horiz-adv-x="948" d="M853.5 664.7h-59.7c4.6-9.2 7.2-19.5 7.2-30.3 0-7-5.9-12.6-13.7-12.6-7.4 0-13.7 5.5-13.7 12.6 0 11.5-4.5 22.1-11.9 30.3h-79.9c-7.4-8.3-11.8-18.8-11.8-30.3 0-7-6.3-12.6-14.1-12.6-7.4 0-13.7 5.5-13.7 12.6 0 10.8 2.6 21.1 7.2 30.3h-404.6c-35.1 0-63.6-26.3-63.6-58.4v-375c0-32.2 28.5-58.4 63.6-58.4h608.7c34.8 0 63.2 26.3 63.2 58.4v375c0 32.1-28.4 58.4-63.2 58.4zM815.8 375.2c0-10-8.9-17.7-19.6-17.7h-149c-10.4 0-19.2 7.8-19.2 17.7v207.8c0 10 8.9 17.7 19.2 17.7h149c10.7 0 19.6-7.8 19.6-17.7v-207.8z" />
<glyph unicode="&#xe96b;" horiz-adv-x="948" d="M679.7 521.2h83.9c5.5 0 10.4 4.1 10.4 9.2 0 4.8-4.8 9.2-10.4 9.2h-83.9c-5.5 0-10-4.4-10-9.2 0-5.1 4.5-9.2 10-9.2z" />
<glyph unicode="&#xe96c;" horiz-adv-x="948" d="M763.6 488.3h-83.9c-5.5 0-10-4.1-10-9.2 0-5.2 4.4-9.2 10-9.2h83.9c5.5 0 10.4 4.1 10.4 9.2s-4.8 9.2-10.4 9.2z" />
<glyph unicode="&#xe96d;" d="M917.504 20.992h-809.984c-12.288 0-22.528 10.24-22.528 22.528v832.512h832.512c12.288 0 22.528-10.24 22.528-22.528v-811.008c0-11.264-10.24-21.504-22.528-21.504z" />
<glyph unicode="&#xe96e;" d="M440.32 20.992h-322.56c-18.432 0-32.768 14.336-32.768 32.768v789.504c0 18.432 14.336 32.768 32.768 32.768h788.48c18.432 0 32.768-14.336 32.768-32.768v-789.504c0-18.432-14.336-32.768-32.768-32.768h-465.92zM1024 849.408v2.048l-1.024 5.12v1.024l-1.024 6.144v1.024c-1.024 7.168-3.072 13.312-6.144 20.48v1.024l-2.048 5.12-1.024 1.024c-18.432 39.936-59.392 67.584-106.496 67.584h-788.48c-64.512 0-117.76-53.248-117.76-117.76v-789.504c0-63.488 53.248-116.736 117.76-116.736h788.48c64.512 0 117.76 53.248 117.76 117.76v795.648z" />
<glyph unicode="&#xe96f;" d="M172.032 425.472h112.64v-316.416h-112.64v316.416z" />
<glyph unicode="&#xe970;" d="M369.664 337.408h112.64v-228.352h-112.64v228.352z" />
<glyph unicode="&#xe971;" d="M559.104 580.096h112.64v-471.040h-112.64v471.040z" />
<glyph unicode="&#xe972;" d="M911.36 437.76c0-220.56-178.8-399.36-399.36-399.36s-399.36 178.8-399.36 399.36c0 220.56 178.8 399.36 399.36 399.36s399.36-178.8 399.36-399.36z" />
<glyph unicode="&#xe973;" d="M512 58.88c-215.040 0-389.12 174.080-389.12 389.12s174.080 389.12 389.12 389.12 389.12-174.080 389.12-389.12-174.080-389.12-389.12-389.12zM512 960c-282.624 0-512-229.376-512-512s229.376-512 512-512 512 229.376 512 512-229.376 512-512 512z" />
<glyph unicode="&#xe974;" d="M638.976 677.376c-24.576 13.312-53.248 4.096-63.488-21.504l-119.808-275.456-43.008 79.872c-11.264 24.576-40.96 36.864-67.584 26.624s-38.912-38.912-27.648-64.512l90.112-175.104c6.144-14.336 16.384-23.552 29.696-28.672l5.12-2.048c26.624-11.264 56.32 1.024 67.584 27.648l152.576 364.544c11.264 25.6 0 56.32-23.552 68.608z" />
<glyph unicode="&#xe975;" d="M911.36 448c0-220.56-178.8-399.36-399.36-399.36s-399.36 178.8-399.36 399.36c0 220.56 178.8 399.36 399.36 399.36s399.36-178.8 399.36-399.36z" />
<glyph unicode="&#xe976;" horiz-adv-x="998" d="M573.3 305.2c0 116.7 95.3 211.4 212.6 211.4s212.4-94.7 212.4-211.4c0-116.5-95.1-211.2-212.4-211.2s-212.6 94.6-212.6 211.2z" />
<glyph unicode="&#xe977;" horiz-adv-x="998" d="M563.5 198.9c-15.6 32.2-24.4 68.2-24.4 106.3 0 65.1 25.6 124.4 67.3 168.4-5.7 14-13.9 27.4-24.7 40.1 70 49.5 118.5 84.8 118.5 84.8 36.9 30 41.7 84.8 10.8 121.4l-0.6 0.8c-31.1 36.9-87 42.5-124.1 12.4 0 0-44.6-40.2-107.5-98.4-12.8 14.5-26.9 26.5-42.5 34.8l-233.8 121.2c-71.7 37.3-121.4-25.5-90.8-67.6l-0.4 0.2 2.9-3.5 204.1-236.6c-61.1-58.9-121.8-118.9-168.3-168.9-4.1 4.1-8.7 7.7-13.7 10.2l-95.5 47.9c-29.4 14.9-49.5-10.8-37.1-27.6h-0.1l1.2-1.2 85.8-97.6c-18.6-24-27.6-40.6-22.6-46.2l0.8-0.8c4.8-5.8 23.4 0 51.2 13.5l84.8-96.8 1.2-1.2c14.7-14.3 44.1 0.4 34.2 30.3l-32.3 98c-1.7 5.2-4.4 9.9-7.9 14.7 58.6 35.4 130.3 82.5 200.6 130.5l162.9-189.1z" />
<glyph unicode="&#xe978;" horiz-adv-x="998" d="M716.4 334c-12.4-4.6-18.4-17.2-13.1-28.4l42.9-77.3c2.9-6 8.1-10.4 14.1-12.4l2.5-1.2c12.4-5.2 26.9 0.4 32.3 12.2l73.1 161c5 10.8-0.4 24.5-11.8 30-11.8 6-25.5 1.7-30.7-9.3l-56.8-121.6-20.5 35c-5.2 10.9-19.5 16.3-32 12z" />
<glyph unicode="&#xe979;" horiz-adv-x="1003" d="M835.9 155.7v507.1c0 18-13.8 32.8-30.5 32.8h-699c-16.7 0-30.5-14.8-30.5-32.8v-509.4c-32-24.6-75.9-67.7-75.9-80.2v-22.4c0-18 13.6-32.8 30.3-32.8h866.2c16.7 0 30.5 14.8 30.5 32.8v22.4c0 12.9-54.5 58.3-91.1 82.5z" />
<glyph unicode="&#xe97a;" horiz-adv-x="1003" d="M121.7 644.2h668.5v-425.8h-668.5v425.8z" />
<glyph unicode="&#xe97b;" horiz-adv-x="1003" d="M516.7 120.6h-121.6c-16.7 0-30.3-11.1-30.3-24.7 0-13.4 13.6-24.5 30.3-24.5h121.7c16.7 0 30.3 11.1 30.3 24.5-0.1 13.7-13.7 24.7-30.4 24.7z" />
<glyph unicode="&#xe97c;" horiz-adv-x="1003" d="M556.6 549.1c-25.3 22.8-56.4 34.3-93.6 34.5-40.8 0-75.2-14.4-103.3-43.5-28.2-29.3-42.4-65.4-42.4-108.9-0.2-43.7 14.2-80.1 42.6-108.9 28.4-28.6 63.3-43.1 104.5-43.3 19.9 0 40.6 5.2 62.3 15.5 21.7 10.2 32.6 20.9 32.6 31.6 0 4.4-1.5 8.2-4.2 11.1-2.9 3.1-6.3 4.8-10 4.8l-34.1-18.6c-12.5-5.2-28-7.9-46.4-7.9-31.4 0.2-56.9 10.7-76.9 31.6-20.1 20.9-30.1 48.9-30.1 84.2 0.2 32 10.2 59.4 30.5 82.1 20.3 22.6 44.9 33.9 73.6 33.9 29.7 0 53.7-8.8 71.9-26.3s27.2-42.4 27.2-74.4c0-19.9-3.6-35.3-10.7-46-6.9-10.9-14.4-16.1-22.6-16.1-4.6 0-7.1 2.7-7.1 8.2l1 6.7 1.3 7.7 11.9 70.2 1.5 11.7c0 5.4-1.5 9.6-4.6 12.8s-7.1 4.6-11.9 4.6c-4 0-7.7-1-11.1-3.1-3.3-2.1-5.6-5.9-6.9-11.3l-1.5-7.3c-5.6 9-12.1 15.3-19 19.2-7.1 4-16.1 6.1-27.4 6.1-19 0-35.5-9.2-50-27.8-14.2-18.6-21.3-41.4-21.3-68.6-0.2-20.1 5-36.8 15.5-50.6s23.6-20.7 39.3-20.7c8.2 0 15.7 1.9 21.9 5.4 6.5 3.6 12.3 8.6 17.8 15 0-13.8 7.5-20.5 22.6-20.7 18.4 0 38.9 9.4 61.2 28.4 22.4 18.8 33.7 48.1 33.7 87.8 0.3 37.6-12.5 67.9-37.8 90.9zM479.1 398.6c-6.9-8.6-15.7-13-26.3-13-9.2 0.2-16.5 3.3-21.9 9.6-5.2 6.3-7.9 15.3-7.9 26.5 0 12.1 3.6 22.6 10.9 31.1 7.1 8.8 15.9 13.2 26.8 13.2 9.2 0 16.3-3.1 21.3-9.4s7.3-14.6 7.3-25.5c-0.2-13-3.5-23.9-10.2-32.5z" />
<glyph unicode="&#xe97d;" horiz-adv-x="1003" d="M804.7 763.2c-7.9 0-14.6-6.9-14.6-15.7s6.7-15.7 14.6-15.7c37.2 0 67.5-32.8 67.5-72.7 0-8.8 6.7-15.9 14.6-15.9 8.2 0 14.6 7.1 14.6 15.9 0.1 57.5-43.4 104.1-96.7 104.1z" />
<glyph unicode="&#xe97e;" horiz-adv-x="1003" d="M812.3 817.5c-7.9 0-14.6-7.1-14.6-15.7 0-8.8 6.7-15.9 14.6-15.9 60.6 0 110.2-53.1 110.2-118.5 0-8.8 6.5-15.9 14.6-15.9 7.9 0 14.6 7.1 14.6 15.9 0 82.8-62.5 150.1-139.4 150.1z" />
<glyph unicode="&#xe97f;" horiz-adv-x="1003" d="M816.2 875c-7.9 0-14.6-7.1-14.6-15.7 0-8.8 6.7-15.9 14.6-15.9 87.2 0 157.8-76.3 157.8-170.1 0-8.6 6.5-15.7 14.6-15.7 8.2 0 14.6 7.1 14.6 15.7 0.1 111.2-83.7 201.7-187 201.7z" />
<glyph unicode="&#xe980;" horiz-adv-x="717" d="M708.709 936.96c-9.216 16.384-26.624 27.648-46.080 27.648h-608.256c-19.456 0-36.864-10.24-46.080-26.624-5.12-7.168-8.192-16.384-8.192-25.6v-937.984c0-30.72 20.48-43.008 46.080-26.624l266.24 165.888c25.6 15.36 66.56 15.36 92.16 0l266.24-165.888c25.6-15.36 46.080-3.072 46.080 26.624v937.984c0 9.216-3.072 17.408-8.192 24.576z" />
<glyph unicode="&#xe981;" horiz-adv-x="717" d="M562.277 562.176l-82.944-75.776 19.456-107.52c2.048-9.216-2.048-18.432-10.24-23.552-4.096-3.072-10.24-5.12-15.36-5.12-4.096 0-8.192 1.024-12.288 3.072 0 0-81.92 39.936-100.352 48.128l-103.424-48.128c-9.216-4.096-19.456-3.072-27.648 2.048s-12.288 14.336-10.24 23.552l19.456 107.52-82.944 75.776c-6.144 6.144-9.216 16.384-6.144 24.576 3.072 9.216 11.264 15.36 20.48 16.384l114.688 15.36 51.2 97.28c8.192 16.384 37.888 16.384 46.080 0l51.2-97.28 114.688-15.36c9.216-1.024 17.408-7.168 20.48-16.384 3.072-8.192 1.024-18.432-6.144-24.576z" />
<glyph unicode="&#xe982;" d="M512 960c-282.624 0-512-229.376-512-512s229.376-512 512-512 512 229.376 512 512-229.376 512-512 512zM512 58.88c-215.040 0-389.12 174.080-389.12 389.12s174.080 389.12 389.12 389.12 389.12-174.080 389.12-389.12-174.080-389.12-389.12-389.12z" />
<glyph unicode="&#xe983;" d="M598.016 448l86.016 86.016c22.528 23.552 22.528 61.44-1.024 84.992s-62.464 23.552-86.016 0l-84.992-84.992-86.016 86.016c-23.552 23.552-61.44 23.552-86.016 0-23.552-23.552-23.552-62.464 0-86.016l86.016-86.016-86.016-86.016c-23.552-23.552-23.552-61.44 0-84.992 23.552-24.576 62.464-24.576 86.016 0l86.016 84.992 86.016-84.992c23.552-24.576 61.44-24.576 86.016 0 23.552 23.552 23.552 61.44 0 84.992l-86.016 86.016z" />
<glyph unicode="&#xe984;" horiz-adv-x="948" d="M722.5 849.2h-494.2c-32.2 0-41.7-4.7-41.7-37.9v-728.4c0-33.2 9.5-36 41.7-36h494.2c33.2 0 38.9 2.8 38.9 36v728.4c0 33.1-5.7 37.9-38.9 37.9v0zM656 160.1h-367.8c-7.6 0-14.2 6.6-14.2 14.2s6.6 14.2 14.2 14.2h367.8c7.6 0 14.2-6.6 14.2-14.2s-6.6-14.2-14.2-14.2zM656 245.4h-367.8c-7.6 0-14.2 6.6-14.2 14.2s6.6 14.2 14.2 14.2h367.8c7.6 0 14.2-6.6 14.2-14.2s-6.6-14.2-14.2-14.2z" />
<glyph unicode="&#xe985;" horiz-adv-x="948" d="M386.8 650.9h-3.8c-2.8-22.8-4.7-45.5-5.7-70.2h84.4v64.5c-25.6 1-51.2 2.9-74.9 5.7v0zM404.8 406.3c-7.6 18-13.3 38.9-18 61.6 22.8 2.8 48.4 5.7 74 5.7v-80.6c-19 1.9-38 5.7-56 13.3v0zM383 489.7c-2.8 21.8-4.7 45.5-5.7 70.2h84.4v-64.5c-25.6-0.9-51.2-2.8-74.9-5.7h-3.8zM386.8 673.7c4.7 21.8 10.4 43.6 18 61.6 17.1 7.6 36 12.3 55.9 13.3v-80.6c-25.6 0.9-50.2 2.8-73.9 5.7v0zM609.6 683.1c-10.4-2.8-20.9-4.7-30.3-6.6-2.8 15.2-6.6 29.4-11.4 43.6 16.1-9.5 29.4-22.7 41.7-37zM355.5 559.9c0.9-25.6 2.8-50.3 6.6-73-14.2-2.8-28.4-5.7-40.8-9.5-15.2 23.7-24.7 52.1-26.5 82.5h60.7zM361.2 655.6c-2.8-23.7-4.7-48.4-6.6-73h-60.7c1.9 30.3 11.4 57.8 26.5 82.5 13.3-3.8 26.5-6.6 40.8-9.5v0zM334.6 457.5c9.5 2.8 19.9 4.7 30.3 6.6 3.8-15.2 6.6-29.4 11.4-43.6-16.1 9.5-29.4 22.8-41.7 37zM334.6 683.1c12.3 14.2 26.5 27.5 41.7 37-4.7-13.3-8.5-28.4-11.4-43.6-10.4 1.9-20.8 3.8-30.3 6.6zM582.1 485.9c3.8 23.7 5.7 48.4 6.6 73h60.7c-1.9-30.3-11.4-57.8-26.5-82.5-13.3 3.8-26.6 6.7-40.8 9.5v0zM582.1 655.6c14.2 1.9 28.4 5.7 40.8 8.5 15.2-23.7 24.7-52.1 26.5-82.5h-60.7c-0.9 25.7-2.8 50.3-6.6 74v0zM566.9 420.5c4.7 14.2 8.5 28.4 11.4 43.6 10.4-1.9 20.9-3.8 30.3-6.6-11.3-14.2-25.6-26.6-41.7-37zM557.4 650.9h2.8c2.8-22.8 5.7-45.5 5.7-70.2h-83.4v64.5c25.6 1 51.2 2.9 74.9 5.7zM539.4 735.3c7.6-18 13.3-39.8 18-61.6-23.7-3.8-48.4-5.7-74-5.7v80.6c20-1.9 39-5.7 56-13.3zM482.5 393v80.6c24.7-0.9 50.3-2.8 74-5.7-4.7-21.8-10.4-42.7-18-61.6-17.1-7.6-36.1-12.3-56-13.3v0zM483.5 495.4v64.5h83.4c0-23.7-1.9-48.4-5.7-70.2h-3.8c-24.7 3.8-49.3 5.7-74.9 5.7h1z" />
<glyph unicode="&#xe986;" horiz-adv-x="1078" d="M635.904-50.688c0 0-10.24 11.264-15.36 21.504l-75.776 86.016-71.68-86.016c-10.24-10.24-25.6-15.36-40.96-15.36-15.36 5.12-25.6 15.36-30.72 25.6l-40.96 111.616-111.616-46.080c-15.36-5.12-30.72-5.12-40.96 5.12s-15.36 25.6-15.36 40.96l20.48 111.616-121.856 6.144c-15.36 0-30.72 10.24-35.84 20.48-5.12 15.36-5.12 30.72 5.12 40.96l71.68 96.256-106.496 51.2c-15.36 5.12-20.48 20.48-25.6 35.84 0 15.36 10.24 30.72 20.48 35.84l111.616 61.44-65.536 90.112c-10.24 10.24-10.24 25.6-5.12 40.96s20.48 20.48 35.84 20.48l121.856 5.12-25.6 116.736c0 15.36 5.12 30.72 15.36 40.96s25.6 10.24 40.96 5.12l111.616-46.080 35.84 106.496c5.12 15.36 15.36 25.6 30.72 25.6 15.36 5.12 30.72 0 40.96-10.24l80.896-91.136 71.68 86.016c10.24 10.24 25.6 15.36 40.96 15.36 15.36-5.12 25.6-15.36 30.72-30.72l33.792-116.736 111.616 46.080c15.36 5.12 30.72 5.12 40.96-5.12s15.36-25.6 15.36-40.96l-25.6-111.616h126.976c15.36 0 30.72-10.24 35.84-25.6s5.12-30.72-5.12-40.96l-80.896-96.256 111.616-56.32c15.36-5.12 20.48-20.48 20.48-35.84s-10.24-30.72-20.48-35.84l-106.496-61.44 71.68-91.136c10.24-10.24 10.24-25.6 5.12-40.96s-20.48-20.48-35.84-25.6l-121.856-5.12 20.48-111.616c5.12-15.36-5.12-30.72-15.36-40.96s-30.72-10.24-40.96-5.12l-111.616 46.080-36.864-110.592c-5.12-15.36-15.36-25.6-30.72-25.6-19.456 13.312-19.456 13.312-19.456 13.312z" />
<glyph unicode="&#xe987;" horiz-adv-x="1078" d="M337.92 428.544c-10.24-5.12-10.24-15.36-10.24-25.6s5.12-20.48 10.24-25.6c10.24-5.12 15.36-10.24 30.72-10.24h40.96c10.24-35.84 30.72-66.56 56.32-91.136 20.48-15.36 46.080-30.72 71.68-40.96s51.2-15.36 80.896-10.24c46.080 0 80.896 10.24 106.496 25.6 20.48 10.24 30.72 25.6 30.72 46.080 0 10.24-5.12 25.6-10.24 30.72s-20.48 15.36-30.72 15.36c-5.12 0-10.24 0-20.48-5.12l-30.72-15.36c-10.24-5.12-25.6-5.12-40.96-10.24-30.72 0-56.32 10.24-75.776 25.6-10.24 10.24-15.36 15.36-20.48 25.6l121.856 5.12c10.24 0 20.48 5.12 25.6 10.24 10.24 5.12 10.24 15.36 10.24 25.6 0 5.12 0 10.24-5.12 15.36s-10.24 10.24-15.36 10.24c-5.12 5.12-10.24 5.12-20.48 5.12l-137.216-5.12v25.6l137.216 5.12c10.24 0 20.48 5.12 25.6 10.24s10.24 15.36 10.24 25.6c0 5.12 0 10.24-5.12 15.36s-10.24 10.24-15.36 10.24c-5.12 0-10.24 5.12-20.48 5.12l-121.856-7.168c10.24 15.36 15.36 30.72 30.72 35.84 15.36 10.24 40.96 20.48 61.44 20.48 15.36 0 35.84-5.12 51.2-10.24s30.72-10.24 40.96-10.24c15.36 0 20.48 5.12 30.72 15.36 5.12 10.24 10.24 20.48 10.24 35.84s-10.24 30.72-25.6 40.96c-15.36 10.24-35.84 15.36-56.32 20.48s-40.96 5.12-56.32 5.12c-30.72 0-61.44-5.12-86.016-15.36s-51.2-25.6-71.68-46.080c-20.48-20.48-35.84-46.080-46.080-71.68-5.12-5.12-5.12-10.24-5.12-20.48h-35.84c-10.24 0-20.48-5.12-25.6-10.24s-10.24-15.36-10.24-25.6c0-10.24 5.12-20.48 10.24-25.6 10.24-5.12 15.36-10.24 30.72-10.24h25.6c0-10.24 0-15.36 0-25.6h-25.6c-10.24 16.384-15.36 11.264-25.6 6.144z" />
<glyph unicode="&#xe988;" horiz-adv-x="1078" d="M937.249 533.8v-418.1c0-57.8-34.1-92.9-90.1-92.9h-616.3c-55.9 0-90.1 36-90.1 92.9v418.1c0 57.8 34.1 92.9 90.1 92.9h615.3c57 0 91.1-36 91.1-92.9v0zM351.249 675.1c2.8-0.9 4.7-0.9 6.6-0.9 12.3 0 23.7 8.5 26.5 21.8 18 72.1 80.6 122.3 152.7 122.3s134.6-50.3 152.7-122.3c3.8-15.2 19-24.7 33.2-20.9s23.7 19 19.9 34.1c-23.7 96.7-108.1 164-205.7 164-96.7 0-182-67.3-205.7-164-3.9-14.2 4.7-30.4 19.8-34.1z" />
<glyph unicode="&#xe989;" horiz-adv-x="1078" d="M526.949 522.2l60.5-128.7 135.6-20.7-98.2-100.3 23.2-141.7-121.2 67-121.3-67 23.1 141.7-97.9 100.3 135.6 20.7 60.6 128.7z" />
<glyph unicode="&#xe98a;" horiz-adv-x="1078" d="M687.898 394.25c3.5 11.4 6.5 23.6 8.2 36.4l-25.2 19.3v-159.5c0.2-1.7 2.5-26.2 16.9-56.7l0.1 160.5z" />
<glyph unicode="&#xe98b;" horiz-adv-x="1078" d="M643.898 289.45v181.4l-128.3 98.4h-241.1l-71.5 78c-9.7 13.8-29.3 17.3-43.4 8-14.3-9.3-18-28.2-8.4-41.9l45.5-77.7c1.9-21.1 8.7-50.1 27.5-80.2l-67.2-93.5c-5.5-5.9-9.2-13.1-10.8-20.9l-31-157.2c-4.6-23 11.1-45.3 34.9-49.7 2.8-0.6 5.5-0.8 8.2-0.8 20.9 0 39.3 14.2 43.4 34.5l28.7 145.5 86.7 59.4c60.1-32.4 149.5-57 282.8-61.3v-135.7c0-23.4 19.6-42.5 44-42.5 24.2 0 44 19.1 44 42.5v5.9c-39.3 51.6-43.8 104.3-44 107.8v0zM675.398 492.050c6.6 0.9 14.8 2 24 3l16.3 38.5c0 0 120.4-20.7 139.8 37.4 15.8 47.4-96.9 126.9-165.8 147.8l-29.5 51.6c-5 15.8-22.3 24.8-38.7 19.9-16.4-4.7-25.7-21.4-20.7-37.3l3.5-71c-23.3-30.2-44.4-69.3-56-92.2l127.1-97.7z" />
<glyph unicode="&#xe98c;" horiz-adv-x="1078" d="M670.898 290.35c0.3-3.8 10.5-115.2 134.8-161.6 124.3 46.4 134.4 157.9 134.8 162.7l-0.1 172.6c-23.3 3.4-79.5 10.5-134.8 10.5s-111.3-7.2-134.8-10.5l0.1-173.7zM643.798 475.65c0 6.6 4.7 12.3 11.3 13.4 1.5 0.2 20.4 3.4 48.1 6.5l12.4 38-167.5 56.2-46.1-18.8 141.8-108.8v13.5z" />
<glyph unicode="&#xe98d;" horiz-adv-x="1078" d="M805.598 100.85c-1.5 0-3.1 0.2-4.5 0.8-145.6 51.3-156.8 182.2-157.2 187.8l-0.1 186.2c0 6.6 4.7 12.3 11.3 13.4 3.1 0.6 76.2 12.7 150.5 12.7s147.4-12.1 150.5-12.7c6.5-1.1 11.3-6.7 11.3-13.4v-185.3c-0.5-6.5-11.6-137.5-157.3-188.8-1.4-0.5-3-0.7-4.5-0.7zM670.898 464.050v-173.6c0.3-3.8 10.5-115.2 134.8-161.6 124.3 46.3 134.4 157.8 134.8 162.6l-0.1 172.6c-23.3 3.4-79.5 10.5-134.8 10.5s-111.3-7.1-134.7-10.5v0zM753.498 341.55c-9.5-3.2-13.9-12.6-9.9-20.7l32.2-56.7c2.1-4.4 6.1-7.6 10.5-9.1l1.9-0.9c9.5-3.6 20.3 0.4 24.4 8.9l55.1 117.9c3.8 8-0.2 17.9-8.9 22.1-8.8 4.4-19.1 1.2-23-6.9l-42.7-89-15.4 25.7c-4 8-14.9 11.8-24.2 8.7v0z" />
<glyph unicode="&#xe98e;" horiz-adv-x="1078" d="M928.4 380.4c0.7 7.6-6.7 14.8-13.6 16.4-3.6 0.8-6.7 0.6-10.2 1.6-7 2.2-13.8 6.2-20.4 9.3-9.8 4.4-15.2 7.6-22.7 15.2-6.2 6.2-11 13.1-18.8 17.6-9 5.1-17.3 4.5-27.4 4.5-10.2 0-19.2 0.7-27.6-5.8-11.8-9-21.2-22-25.5-35.9-6.4-20.5-12.7-43.3-14-64.8-22.6 16.2-45.2 32.4-67.8 48.5-12.1 8.7-24.3 17.3-36.3 26-4.2 3-16.8 11.2-16 14.6-2.1 2-2.3 10.1-3 13.8-2.1 12.8-4.2 25.6-6.3 38.5-6.1 36.9-12.1 73.9-18.2 110.8-4.9 29.7-9.8 59.4-14.6 89-2.5 15.3-1.3 32.4-9.6 45.9-12.2 20.1-36.5 23.9-57.5 29.7-25 6.9-50.1 11.8-75.7 15.4-49.8 7.1-100.7 6.3-150.5-0.8-25.5-3.7-51.1-8.9-75.8-16.3-21.5-6.4-46.6-10.7-59.3-30.7-8.4-13.3-8.4-27.5-8.2-42.7 0.3-26.6 0.5-53.3 0.8-79.9 0.6-67.7 1.3-135.4 1.9-203.1 0.2-16.5 0.7-31.9 11.6-45.6 15.3-19.4 42.7-21.8 61.3-5.9 14.6 12.4 17 28.6 16.8 46.6-0.3 27.5-0.5 55.1-0.8 82.6-0.4 38.2-0.7 76.4-1.1 114.6-0.1 14.9-0.3 29.9-0.4 44.8-0.1 5.5-0.8 18.7 1.8 23.6 2.4 4.6 15.3 6.2 20.8 7.6 0.5-66.3 0.9-132.6 1.4-199 0.8-115.9 1.7-231.8 2.5-347.7 0.3-37.6 0.5-75.2 0.8-112.8 0.2-21.5-0.7-44.4 18-59.5 32.3-26.2 70.6 3 72.2 39.3 1.5 32.4-1.4 366.7-1.4 366.7s22.3-0.7 27.5-0.6c0.8-87.3 1.6-173.6 2.4-261 0.3-34.5-1.1-69.6 0.9-104.1 1.9-32.4 31.1-60.5 64-44.8 24 11.5 25.8 36.2 25.6 59.1-0.3 33.6-0.6 67.2-0.9 100.8-1 111.4-1.9 222.7-2.9 334.1-0.4 49.8-0.9 99.6-1.3 149.4-0.1 16.9-0.7 81.5-0.7 82.6 4.7-1.2 21-2.7 24.2-6 1.1-1.2 1.1-6.2 1.4-7.7 3.2-17.6 6.3-35.2 9.5-52.7 9.2-51.2 18.4-102.4 27.6-153.6 1.7-9.3 3.4-18.7 5-28 0.9-5 3.6-12.1 3.1-17.2-0.5-5.7 0.5-2.7-5.9-6.5-5.7-3.4-7.2-10-6.8-16.3 0.6-11 9.7-17.5 16.9-24.8 16-16.4 32.1-32.8 48.1-49.2 30.4-31.1 60.9-62.2 91.3-93.3-11.6-10.3-12.2-32.3-19.8-43.6-11.6-17.1-25.8-32.6-35.8-50.6-18.5-33.4-35.4-68.2-35.1-107.4 0.1-19.3 3.8-39.1 7.5-58.1 3.5-17.8 19-16.2 34-16.2 45.1 0 90.2 0 135.3 0 8 0 16 0 24 0 9.5 0 25.8-3.2 34.4 0.1 14.3 5.5-14.3 30.2-23.5 32.1 6 23.3 7.9 47.7 13.6 71.1 5.1 20.9 5.1 45.2 14.2 64.6 19.1 40.4 38.2 82.8 29.5 128.4-2.6 13.5-6.3 26.9-11.1 39.8-2.1 5.8-4.5 11.6-6.7 17.4-2 5.1-3.4 11.8-6.9 16.2 20.8 10.9 41.7 21.7 62.5 32.6 11.8 6 30.5 26.7 27.7 41.3zM610.7 345.1c10.1 5.4 18.3 16.9 21.1 27.9 34.6-24.8 69.1-49.6 103.7-74.4-13.3-14.6-21.6-32.4-31.3-49.5-30.9 31.7-64.9 62.4-93.5 96zM444.6 874.8c0-47-38.1-85.2-85.2-85.2s-85.2 38.1-85.2 85.2 38.2 85.2 85.2 85.2 85.2-38.1 85.2-85.2z" />
<glyph unicode="&#xe98f;" horiz-adv-x="1078" d="M846.2 288.8c0.7 8-6.3 17.2-11.4 23.1-3 3.4-5.8 6.5-9.2 9.5-3.3 2.9-6.6 5.8-10 8.6-12.6 10.7-30 16.7-45.5 22.5-6.9 2.5-14.7 4.4-18.5 1.7-2.8-2-4.3-8-4.6-11.5-0.2-2.7-0.8-6.2 3-9.9 0.8-0.8 30.4-14.3 40.8-18.9 17.3-7.7 34.6-15.4 51.8-23.1 0.5-0.3 3.3-1.9 3.6-2z" />
<glyph unicode="&#xe990;" horiz-adv-x="1078" d="M762.248 412.25c-2-14.5-5.4-28.3-9.3-41.1v-246.3c0-26.4-22.3-48-49.6-48-27.5 0-49.6 21.5-49.6 48v153c-150.2 4.9-251 32.7-318.8 69.2l-97.7-67-32.4-164.1c-4.6-22.9-25.3-38.9-48.8-38.9-3.1 0-6.1 0.3-9.3 0.9-26.8 4.9-44.6 30.1-39.4 56l35 177.4c1.8 8.7 5.9 16.9 12.2 23.5l75.8 105.4c-21.2 33.9-28.9 66.6-31 90.4l-51.3 87.6c-10.8 15.6-6.7 36.8 9.5 47.3 16.1 10.5 38 6.6 49-9l80.6-87.9 273.3-1.6 201.8-154.8zM771.048 733.050l-33.2 58.2c-5.6 17.9-25.2 27.9-43.7 22.5-18.4-5.4-29-24.1-23.4-42l4-80c-26.3-34-50.1-78.2-63.2-103.9l162.7-125 26.1 61.5c0 0 135.8-23.4 157.5 42.1 18 53.4-109.2 143.1-186.8 166.6v0z" />
<glyph unicode="&#xe991;" horiz-adv-x="1078" d="M801.148 525.15l-38.2-113.3-203.5 156.2 52 21.2 189.7-64.1z" />
<glyph unicode="&#xe992;" glyph-name="wideBottomArrow" horiz-adv-x="1078" d="M539 510.8c87.1 0 483.3 212.6 483.3 212.6 26.4 12 55.7 24.6 55.7 55.1v126.4c0 30.2-25.2 55.1-55.7 55.1h-965.6c-30.5 0-55.7-24.9-55.7-55.1v-126.4c0-30.5 25.4-36.2 55.7-55.1 0 0 395.2-212.6 482.3-212.6z" />
<glyph unicode="&#xe993;" d="M866.304 960h-708.608c-97.28 0-157.696-60.416-157.696-157.696v-708.608c0-97.28 60.416-157.696 157.696-157.696h708.608c97.28 0 157.696 60.416 157.696 157.696v708.608c0 97.28-60.416 157.696-157.696 157.696z" />
<glyph unicode="&#xe994;" d="M718.848 607.744c3.072 1.024 6.144 1.024 9.216 1.024h81.92v138.24h-134.144c0 0-151.552 0-155.648-142.336l-4.096-116.736h-86.016v-137.216h86.016v-414.72h163.84v411.648h109.568l17.408 140.288h-124.928l2.048 66.56c-5.12 24.576 10.24 48.128 34.816 53.248z" />
<glyph unicode="&#xe995;" d="M866.304 960h-708.608c-87.040 0-157.696-70.656-157.696-157.696v-708.608c0-87.040 70.656-157.696 157.696-157.696h708.608c87.040 0 157.696 70.656 157.696 157.696v708.608c0 87.040-70.656 157.696-157.696 157.696z" />
<glyph unicode="&#xe996;" d="M749.568 698.88c-1.024 0-1.024 0-2.048 0-9.216 0-16.384-5.12-20.48-13.312l-47.104-69.632-47.104 69.632c-4.096 8.192-11.264 13.312-20.48 13.312-11.264 0-21.504-9.216-21.504-20.48 0 0 0 0 0 0 0-5.12 2.048-11.264 5.12-15.36l61.44-87.040v-56.32c0-11.264 9.216-21.504 20.48-22.528 0 0 0 0 0 0 12.288 0 21.504 10.24 21.504 22.528 0 0 0 0 0 0v57.344l61.44 86.016c3.072 4.096 5.12 9.216 6.144 15.36 2.048 10.24-6.144 20.48-17.408 20.48z" />
<glyph unicode="&#xe997;" d="M452.608 439.808c-9.216 0-17.408-6.144-20.48-15.36l-70.656-189.44-69.632 190.464c-3.072 9.216-12.288 15.36-22.528 14.336-12.288 0-21.504-10.24-21.504-22.528 0 0 0 0 0 0 0-4.096 1.024-7.168 2.048-10.24l84.992-217.088c3.072-11.264 13.312-18.432 24.576-18.432h2.048c11.264 0 21.504 8.192 24.576 18.432l84.992 218.112c1.024 3.072 2.048 6.144 2.048 10.24 1.024 11.264-8.192 21.504-20.48 21.504z" />
<glyph unicode="&#xe998;" d="M465.92 699.904c-4.096 1.024-8.192 1.024-11.264 1.024-23.552 0-46.080-13.312-58.368-33.792-9.216 21.504-30.72 33.792-54.272 33.792-22.528-1.024-41.984-13.312-52.224-32.768v8.192c3.072 11.264-3.072 23.552-14.336 26.624s-23.552-3.072-26.624-14.336c-1.024-4.096-1.024-8.192 0-11.264v-157.696c-3.072-11.264 3.072-23.552 14.336-26.624s23.552 3.072 26.624 14.336c1.024 4.096 1.024 8.192 0 11.264v93.184c-4.096 22.528 9.216 44.032 31.744 48.128 2.048 0 3.072 1.024 5.12 1.024 22.528-3.072 37.888-23.552 34.816-46.080 0 0 0-1.024 0-1.024v-92.16c0-12.288 9.216-22.528 21.504-22.528 0 0 0 0 0 0 12.288 0 21.504 10.24 21.504 22.528 0 0 0 0 0 0v90.112c-5.12 22.528 9.216 44.032 31.744 48.128 2.048 0 3.072 1.024 5.12 1.024 22.528 0 34.816-16.384 34.816-48.128v-92.16c0-12.288 9.216-22.528 20.48-22.528 0 0 0 0 0 0 11.264 0 21.504 9.216 21.504 21.504 0 0 0 1.024 0 1.024v105.472c5.12 34.816-17.408 67.584-52.224 73.728z" />
<glyph unicode="&#xe999;" d="M727.040 241.152c-5.12 0-10.24-2.048-13.312-5.12-16.384-17.408-39.936-26.624-63.488-25.6-49.152 2.048-87.040 44.032-84.992 93.184 0 1.024 0 2.048 0 2.048-5.12 47.104 29.696 89.088 76.8 94.208 25.6 2.048 50.176-6.144 68.608-23.552 4.096-3.072 8.192-4.096 13.312-4.096 12.288 0 22.528 10.24 22.528 22.528 0 0 0 1.024 0 1.024 1.024 7.168-3.072 14.336-8.192 18.432-24.576 19.456-56.32 29.696-88.064 28.672-70.656 0-128-57.344-128-128 0-3.072 0-6.144 0-9.216-6.144-69.632 46.080-131.072 115.712-136.192 3.072 0 6.144 0 10.24 0 33.792-1.024 67.584 11.264 92.16 33.792 5.12 4.096 7.168 10.24 7.168 16.384 0 11.264-9.216 21.504-20.48 21.504z" />
<glyph unicode="&#xe99a;" d="M157.696 960h708.608c87.040 0 157.696-70.656 157.696-157.696v-708.608c0-87.040-70.656-157.696-157.696-157.696h-708.608c-87.040 0-157.696 70.656-157.696 157.696v708.608c0 87.040 70.656 157.696 157.696 157.696z" />
<glyph unicode="&#xe99b;" d="M770.048 607.744c-19.456-8.192-39.936-16.384-59.392-16.384 19.456 12.288 39.936 31.744 48.128 59.392-19.456-12.288-44.032-19.456-67.584-23.552-19.456 19.456-48.128 31.744-75.776 31.744-59.392 0-107.52-48.128-107.52-107.52 0-8.192 0-16.384 4.096-23.552-88.064 4.096-167.936 48.128-219.136 111.616-12.288-16.384-16.384-35.84-16.384-56.32 0-35.84 19.456-67.584 48.128-88.064-16.384 0-31.744 4.096-48.128 12.288v0c0-52.224 35.84-96.256 83.968-103.424-8.192-4.096-19.456-4.096-27.648-4.096s-12.288 0-19.456 0c12.288-44.032 52.224-71.68 99.328-71.68-35.84-27.648-83.968-44.032-132.096-44.032-8.192 0-16.384 0-23.552 0 48.128-31.744 103.424-48.128 163.84-48.128 195.584 0 303.104 159.744 303.104 303.104 0 4.096 0 8.192 0 12.288 13.312 16.384 29.696 35.84 46.080 56.32z" />
<glyph unicode="&#xe99c;" d="M866.304 960h-708.608c-87.040 0-157.696-70.656-157.696-157.696v-708.608c0-87.040 70.656-157.696 157.696-157.696h708.608c87.040 0 157.696 70.656 157.696 157.696v708.608c0 87.040-70.656 157.696-157.696 157.696z" />
<glyph unicode="&#xe99d;" d="M758.784 563.712v8.192c-7.168 19.456-25.6 32.768-46.080 32.768h4.096c-132.096 17.408-265.216 17.408-396.288 0h3.072c-20.48 0-38.912-13.312-45.056-32.768v-8.192c-11.264-77.824-11.264-157.696 0-235.52v-7.168c6.144-19.456 24.576-32.768 45.056-32.768h-5.12c65.536-9.216 132.096-14.336 197.632-14.336 66.56 0 132.096 4.096 198.656 13.312h-3.072c20.48 0 38.912 13.312 46.080 32.768v7.168c5.12 38.912 8.192 78.848 8.192 117.76 0 40.96-2.048 79.872-7.168 118.784zM590.848 435.712l-99.328-73.728c-2.048-2.048-4.096-2.048-7.168-2.048-2.048 0-4.096 0-6.144 0-4.096 2.048-6.144 6.144-6.144 11.264v146.432c0 5.12 2.048 9.216 6.144 11.264s9.216 2.048 12.288 0l101.376-72.704c3.072-2.048 5.12-6.144 5.12-10.24 1.024-4.096-2.048-8.192-6.144-10.24z" />
<glyph unicode="&#xe99e;" horiz-adv-x="1527" d="M1174.124 244.224v514.048c0 18.432-15.36 32.768-33.792 32.768h-771.072c-18.432 0-32.768-15.36-33.792-32.768v-516.096c-34.816-24.576-83.968-68.608-83.968-81.92v-22.528c0-18.432 15.36-32.768 33.792-32.768h956.416c18.432 0 33.792 14.336 33.792 32.768v22.528c0 13.312-60.416 59.392-101.376 83.968z" />
<glyph unicode="&#xe99f;" horiz-adv-x="1527" d="M385.644 738.816h738.304v-431.104h-738.304v431.104z" />
<glyph unicode="&#xe9a0;" horiz-adv-x="1527" d="M821.868 208.384h-134.144c-18.432 0-33.792-11.264-33.792-24.576s15.36-24.576 33.792-24.576h134.144c18.432 0 33.792 11.264 33.792 24.576s-15.36 24.576-33.792 24.576z" />
<glyph unicode="&#xe9a1;" horiz-adv-x="1527" d="M802.412 577.024l-147.456 57.344c-10.24 4.096-15.36-1.024-11.264-11.264l57.344-146.432c2.048-7.168 9.216-10.24 16.384-8.192 2.048 1.024 4.096 2.048 5.12 3.072l21.504 21.504 73.728-72.704c11.264-11.264 30.72-11.264 40.96 0s11.264 29.696 0 40.96v0l-73.728 72.704 21.504 21.504c5.12 5.12 5.12 13.312 1.024 18.432-1.024 1.024-3.072 2.048-5.12 3.072z" />
<glyph unicode="&#xe9a2;" horiz-adv-x="1098" d="M775.443 224.768c0 10.24 3.072 18.432 9.216 26.624l1.024 2.048c14.336 19.456 40.96 24.576 60.416 10.24v0c19.456-14.336 23.552-43.008 9.216-62.464l-1.024-2.048c-14.336-19.456-40.96-23.552-60.416-10.24v0c-11.264 8.192-18.432 22.528-18.432 35.84z" />
<glyph unicode="&#xe9a3;" horiz-adv-x="1098" d="M511.251-43.52c-276.48-5.12-506.88 215.040-512 492.544-5.12 276.48 215.040 506.88 492.544 512s505.856-215.040 512-492.544c0-3.072 0-6.144 0-10.24 3.072-273.408-218.112-498.688-492.544-501.76z" />
<glyph unicode="&#xe9a4;" horiz-adv-x="1098" d="M233.747 258.56v0c-14.336 19.456-40.96 24.576-60.416 11.264-11.264-9.216-18.432-21.504-18.432-35.84 0-9.216 2.048-17.408 6.144-25.6l1.024-2.048c14.336-19.456 40.96-24.576 60.416-10.24s24.576 41.984 10.24 61.44v1.024h1.024z" />
<glyph unicode="&#xe9a5;" horiz-adv-x="1098" d="M176.403 653.824c0 0 1.024 0 0 0 19.456-14.336 47.104-10.24 60.416 10.24v0c14.336 19.456 11.264 47.104-9.216 61.44v0c-19.456 14.336-46.080 10.24-60.416-9.216l-1.024-1.024c-5.12-8.192-9.216-16.384-9.216-26.624 1.024-14.336 8.192-27.648 19.456-34.816z" />
<glyph unicode="&#xe9a6;" horiz-adv-x="1098" d="M404.755 130.56h-3.072c-23.552 6.144-47.104-5.12-54.272-28.672-1.024-4.096-2.048-9.216-2.048-14.336 0-18.432 12.288-35.84 29.696-41.984h2.048c23.552-8.192 47.104 5.12 54.272 28.672v1.024c8.192 23.552-4.096 49.152-26.624 55.296z" />
<glyph unicode="&#xe9a7;" horiz-adv-x="1098" d="M351.507 815.616c8.192-23.552 31.744-34.816 55.296-27.648h2.048c23.552 8.192 34.816 31.744 28.672 55.296v1.024c-8.192 23.552-31.744 34.816-55.296 27.648h-2.048c-18.432-5.12-30.72-23.552-29.696-41.984-1.024-3.072 0-8.192 1.024-14.336 0 1.024 0 1.024 0 0z" />
<glyph unicode="&#xe9a8;" horiz-adv-x="1098" d="M617.747 790.016h2.048c0 0 0 0 1.024 0 23.552-8.192 47.104 5.12 54.272 28.672 6.144 21.504-5.12 47.104-28.672 55.296h-2.048c0 0 0 0-1.024 0-23.552 6.144-47.104-5.12-54.272-28.672-1.024-4.096-2.048-9.216-2.048-13.312 0-19.456 12.288-36.864 30.72-41.984z" />
<glyph unicode="&#xe9a9;" horiz-adv-x="1098" d="M787.731 659.968c0 0 1.024 0 0 0 14.336-19.456 40.96-24.576 60.416-10.24s24.576 41.984 10.24 61.44l-1.024 2.048c-14.336 19.456-40.96 23.552-60.416 10.24-11.264-9.216-17.408-21.504-17.408-35.84 0-10.24 3.072-18.432 9.216-26.624-1.024 0-1.024-1.024-1.024-1.024z" />
<glyph unicode="&#xe9aa;" horiz-adv-x="1098" d="M197.907 449.024c8.192 10.24 12.288 23.552 11.264 35.84 0 4.096-1.024 9.216-2.048 13.312s-3.072 9.216-5.12 13.312-5.12 8.192-8.192 11.264c-11.264 9.216-24.576 13.312-38.912 12.288h-34.816c-5.12 0-11.264-1.024-15.36-5.12s-5.12-10.24-5.12-15.36v-112.64c0-5.12 1.024-10.24 4.096-14.336 3.072-3.072 8.192-5.12 12.288-5.12s10.24 2.048 12.288 5.12c3.072 4.096 4.096 9.216 4.096 14.336v32.768h26.624c16.384-2.048 30.72 3.072 38.912 14.336zM134.419 463.36v41.984h19.456c5.12 0 11.264-2.048 14.336-5.12 3.072-4.096 5.12-9.216 6.144-14.336 0-5.12-1.024-11.264-5.12-15.36s-11.264-6.144-17.408-6.144h-17.408z" />
<glyph unicode="&#xe9ab;" horiz-adv-x="1098" d="M356.627 423.424c2.048 9.216 3.072 16.384 2.048 25.6v68.608c0 5.12-2.048 10.24-5.12 14.336l-1.024 1.024c-6.144 6.144-17.408 5.12-24.576-1.024-3.072-4.096-4.096-9.216-4.096-14.336v-68.608c1.024-9.216-1.024-18.432-6.144-26.624-3.072-3.072-6.144-6.144-11.264-9.216-4.096-2.048-9.216-3.072-13.312-3.072s-9.216 1.024-13.312 3.072c-4.096 2.048-8.192 4.096-11.264 8.192-5.12 6.144-8.192 15.36-6.144 23.552v72.704c0 5.12-1.024 10.24-4.096 14.336l-1.024 1.024c-6.144 6.144-17.408 5.12-24.576-1.024-3.072-3.072-5.12-9.216-4.096-14.336v-76.8c0-9.216 2.048-16.384 5.12-24.576s8.192-14.336 14.336-19.456c6.144-5.12 13.312-10.24 21.504-13.312 17.408-6.144 36.864-5.12 54.272 2.048 9.216 4.096 17.408 11.264 23.552 18.432 4.096 6.144 7.168 13.312 9.216 19.456z" />
<glyph unicode="&#xe9ac;" horiz-adv-x="1098" d="M511.251 532.992c-6.144 6.144-17.408 5.12-24.576-1.024-3.072-4.096-4.096-9.216-4.096-14.336v-72.704l-65.536 84.992c-3.072 4.096-9.216 8.192-14.336 8.192-4.096 0-9.216-2.048-12.288-5.12s-4.096-8.192-4.096-13.312v-119.808c0-5.12 1.024-10.24 4.096-14.336 3.072-3.072 8.192-5.12 13.312-5.12 4.096 0 10.24 2.048 12.288 5.12 3.072 4.096 4.096 9.216 4.096 14.336v74.752l66.56-88.064c1.024-1.024 1.024-2.048 2.048-2.048 6.144-6.144 16.384-5.12 23.552 1.024 3.072 4.096 4.096 10.24 4.096 15.36v117.76c0 5.12-1.024 10.24-4.096 14.336-1.024 0-1.024 0-1.024 0z" />
<glyph unicode="&#xe9ad;" horiz-adv-x="1098" d="M601.363 386.56c3.072 4.096 4.096 9.216 4.096 14.336v104.448h19.456c4.096 0 9.216 1.024 12.288 4.096 0 0 0 0 1.024 1.024 5.12 6.144 5.12 16.384-1.024 21.504-3.072 3.072-8.192 4.096-12.288 4.096h-74.752c-4.096 0-9.216-1.024-12.288-4.096s-5.12-6.144-4.096-11.264c0-4.096 1.024-9.216 5.12-11.264 3.072-3.072 8.192-4.096 12.288-4.096h20.48v-104.448c0-5.12 1.024-10.24 4.096-14.336 3.072-3.072 8.192-5.12 13.312-5.12 4.096-2.048 9.216 1.024 12.288 5.12z" />
<glyph unicode="&#xe9ae;" horiz-adv-x="1098" d="M650.515 460.288v0 0 0z" />
<glyph unicode="&#xe9af;" horiz-adv-x="1098" d="M656.659 493.056c-4.096-11.264-6.144-21.504-6.144-32.768-1.024-21.504 6.144-43.008 20.48-58.368 6.144-8.192 15.36-13.312 24.576-16.384 9.216-4.096 19.456-5.12 29.696-5.12 9.216 0 17.408 1.024 26.624 4.096 8.192 3.072 15.36 8.192 21.504 13.312 9.216 8.192 14.336 17.408 18.432 27.648 4.096 11.264 6.144 23.552 6.144 34.816s-2.048 20.48-5.12 30.72c-3.072 9.216-9.216 17.408-15.36 25.6s-14.336 13.312-23.552 16.384c-10.24 4.096-19.456 5.12-30.72 5.12-28.672 1.024-56.32-17.408-66.56-45.056zM698.643 495.104c3.072 3.072 8.192 6.144 12.288 9.216 4.096 2.048 9.216 3.072 14.336 3.072 8.192 0 15.36-2.048 21.504-6.144 5.12-4.096 10.24-11.264 12.288-17.408 3.072-8.192 4.096-15.36 4.096-23.552s-1.024-16.384-4.096-24.576c-2.048-6.144-6.144-13.312-12.288-18.432-6.144-4.096-14.336-8.192-21.504-6.144-8.192 0-15.36 2.048-21.504 8.192-5.12 5.12-10.24 11.264-12.288 18.432s-4.096 15.36-4.096 24.576c0 10.24 3.072 22.528 11.264 32.768z" />
<glyph unicode="&#xe9b0;" horiz-adv-x="1098" d="M823.571 515.584c-5.12-8.192-8.192-16.384-8.192-26.624 0-8.192 2.048-15.36 6.144-21.504 3.072-5.12 8.192-10.24 13.312-12.288 6.144-3.072 14.336-6.144 21.504-9.216l15.36-4.096c3.072-1.024 6.144-2.048 9.216-4.096s5.12-6.144 5.12-11.264c0-4.096-2.048-9.216-5.12-11.264-3.072-3.072-9.216-4.096-13.312-4.096-5.12 0-11.264 1.024-16.384 3.072l-12.288 4.096c-2.048 1.024-5.12 2.048-9.216 2.048s-9.216-1.024-11.264-4.096c-3.072-3.072-4.096-6.144-4.096-11.264s1.024-8.192 3.072-11.264c2.048-3.072 5.12-5.12 9.216-8.192 12.288-5.12 26.624-9.216 39.936-8.192 8.192 0 16.384 1.024 24.576 4.096 8.192 2.048 14.336 6.144 18.432 12.288 9.216 10.24 13.312 24.576 13.312 36.864 1.024 11.264-4.096 21.504-13.312 29.696-10.24 8.192-21.504 13.312-33.792 16.384l-9.216 2.048c-8.192 0-13.312 5.12-14.336 13.312 0 3.072 2.048 8.192 5.12 9.216 3.072 2.048 8.192 3.072 12.288 3.072 5.12 0 11.264-1.024 15.36-3.072l6.144-2.048c2.048 0 3.072 0 5.12 0 4.096 0 9.216 2.048 11.264 5.12 3.072 3.072 4.096 8.192 4.096 12.288 0 5.12-2.048 10.24-6.144 13.312-5.12 3.072-11.264 5.12-16.384 6.144s-11.264 5.12-17.408 5.12c-9.216 0-18.432-2.048-26.624-5.12-10.24-7.168-16.384-12.288-21.504-20.48z" />
<glyph unicode="&#xe9b1;" horiz-adv-x="1098" d="M916.755 378.368c-142.336 1.024-259.072-113.664-259.072-257.024 0-2.048 0-3.072 0-5.12-11.264 12.288-28.672 17.408-45.056 12.288h-2.048c-18.432-5.12-31.744-23.552-30.72-43.008 0-4.096 1.024-8.192 2.048-12.288v-1.024c8.192-23.552 31.744-34.816 54.272-28.672h2.048c1.024 0 1.024 0 2.048 0 11.264 3.072 18.432 11.264 23.552 19.456 11.264-48.128 36.864-92.16 71.68-126.976 77.824 0 362.496 0 362.496 0s-3.072 319.488-3.072 370.688c-47.104 45.056-109.568 71.68-178.176 71.68z" />
</font>
</defs>
</svg>
